<?xml version="1.0" standalone="no"?>
<!DOCTYPE svg PUBLIC "-//W3C//DTD SVG 20010904//EN"
 "http://www.w3.org/TR/2001/REC-SVG-20010904/DTD/svg10.dtd">
<svg version="1.0" xmlns="http://www.w3.org/2000/svg"
 width="1280.000000pt" height="1232.000000pt" viewBox="0 0 1280.000000 1232.000000"
 preserveAspectRatio="xMidYMid meet">
<metadata>
Created by potrace 1.15, written by Peter Selinger 2001-2017
</metadata>
<g transform="translate(0.000000,1232.000000) scale(0.100000,-0.100000)"
fill="#000000" stroke="none">
<path d="M6529 12231 c-19 -15 -29 -17 -58 -9 -20 6 -68 8 -108 6 -59 -4 -80
-11 -121 -37 -27 -17 -57 -40 -67 -51 -10 -11 -22 -17 -27 -14 -4 3 -8 2 -7
-3 4 -22 -5 -31 -53 -53 -132 -58 -158 -73 -192 -110 -20 -22 -50 -64 -67 -95
-17 -30 -35 -58 -40 -61 -5 -3 -14 -15 -20 -27 -12 -22 -12 -22 10 -3 23 21
28 8 11 -25 -15 -26 -15 -208 -1 -222 6 -6 11 -21 11 -33 0 -12 4 -24 9 -26 5
-1 13 -51 17 -110 7 -105 6 -108 -14 -108 -30 0 -72 -21 -72 -36 0 -7 17 -25
38 -41 20 -15 51 -41 68 -58 l31 -30 -4 -209 c-2 -157 -6 -213 -17 -225 -27
-33 -28 -45 -1 -21 l27 25 -7 -25 c-4 -14 -19 -42 -32 -63 -13 -21 -28 -49
-33 -63 -6 -14 -14 -23 -19 -20 -12 8 -31 -17 -47 -61 -7 -21 -18 -37 -24 -35
-6 1 -9 -1 -6 -6 3 -5 -10 -38 -28 -73 -38 -71 -54 -123 -58 -187 -2 -46 -9
-55 -50 -71 -23 -9 -25 -8 -21 12 4 18 3 19 -6 7 -6 -8 -11 -23 -11 -32 0 -10
-4 -18 -9 -18 -4 0 -33 -25 -64 -56 -101 -102 -166 -275 -193 -514 -8 -74 -19
-153 -25 -175 -21 -81 -64 -190 -80 -206 -10 -10 -33 -57 -52 -106 -46 -115
-50 -130 -38 -137 6 -4 4 -22 -5 -49 -24 -68 -136 -637 -137 -699 -1 -31 -5
-54 -10 -51 -4 2 4 -13 19 -34 27 -39 84 -147 84 -159 0 -18 -35 26 -59 75
-15 31 -40 79 -56 106 -30 53 -164 245 -171 245 -2 0 17 -31 41 -69 25 -38 45
-75 45 -82 0 -7 10 -26 23 -43 13 -17 38 -67 55 -111 32 -79 32 -79 7 -50
l-26 30 18 -30 c10 -16 40 -62 66 -102 26 -39 47 -75 47 -79 0 -4 8 -17 17
-28 17 -19 17 -19 -12 1 -38 26 -67 59 -91 101 -10 17 -22 32 -26 32 -11 0
-10 -24 1 -35 5 -6 28 -46 51 -90 23 -44 51 -96 63 -115 19 -33 17 -32 -31 15
-35 33 -52 44 -52 33 0 -9 4 -20 10 -23 5 -3 37 -45 70 -94 57 -83 134 -164
229 -239 23 -19 53 -57 68 -85 14 -29 54 -95 89 -148 l64 -96 -40 -79 c-52
-102 -130 -331 -130 -380 0 -20 7 -45 16 -55 15 -16 11 -26 -45 -136 -34 -65
-70 -129 -80 -142 -18 -23 -41 -27 -766 -116 -411 -51 -750 -97 -754 -103 -8
-12 -89 -21 -256 -27 -121 -5 -137 -3 -204 20 l-74 25 -57 -44 c-38 -28 -73
-46 -101 -50 -24 -4 -48 -11 -55 -17 -19 -15 -473 -70 -622 -75 -91 -3 -139
-8 -155 -18 -34 -22 -120 -36 -217 -36 l-89 0 -91 -61 c-50 -34 -88 -64 -85
-67 13 -14 180 -72 204 -72 15 0 63 9 106 20 85 22 169 26 210 10 19 -7 35 -6
61 5 50 21 165 41 429 74 276 35 364 34 446 -3 l56 -26 74 45 c63 38 89 48
167 60 51 8 100 19 110 25 24 13 160 28 170 18 5 -5 58 -2 118 6 60 9 327 43
594 76 267 33 501 64 520 67 30 5 33 4 23 -9 -17 -20 -7 -28 39 -28 21 0 38
-2 38 -5 0 -8 -61 -101 -99 -151 -31 -42 -31 -42 -9 -48 13 -3 57 -6 99 -6 69
0 77 2 87 23 17 36 14 -1 -7 -73 -22 -78 -51 -137 -99 -205 -19 -27 -49 -78
-65 -114 -61 -130 -58 -349 8 -575 38 -130 162 -422 177 -417 7 2 20 6 29 8
12 3 25 -11 46 -49 44 -78 47 -106 17 -196 -51 -155 -43 -260 29 -393 l30 -56
-46 -56 c-64 -78 -185 -284 -214 -364 -20 -54 -26 -92 -30 -188 -2 -66 -16
-208 -31 -315 l-27 -195 -6 110 c-3 79 -6 93 -8 50 -1 -33 -6 -80 -10 -105
l-8 -45 -9 35 -10 35 -7 -32 c-8 -40 -22 -42 -36 -5 -10 24 -11 22 -6 -20 6
-64 -8 -68 -29 -7 -24 66 -30 58 -11 -15 17 -66 19 -88 5 -66 -15 23 0 -49 17
-83 8 -15 11 -31 9 -36 -3 -5 1 -14 9 -21 37 -31 67 -139 65 -234 -2 -81 -52
-152 -162 -227 -136 -93 -158 -183 -75 -317 52 -85 96 -233 111 -377 6 -63 33
-176 56 -238 15 -39 33 -66 56 -84 19 -14 41 -41 49 -59 15 -37 56 -54 79 -34
12 9 17 7 26 -9 13 -25 58 -28 66 -6 8 19 24 20 24 2 0 -25 37 -50 65 -43 14
4 25 10 25 15 0 5 13 4 29 -2 35 -13 61 3 61 37 0 18 6 22 34 22 44 0 86 28
86 57 0 15 -27 49 -81 102 -44 44 -85 91 -90 104 -16 41 -40 224 -34 266 3 22
7 119 10 215 4 186 11 236 50 340 14 37 28 106 34 160 7 66 19 118 40 170 17
41 31 87 31 102 0 15 17 67 39 115 21 49 91 206 154 349 198 447 295 628 399
742 117 129 194 256 243 401 24 69 57 164 75 211 34 92 121 436 141 563 7 42
16 77 20 77 4 0 23 -17 43 -37 40 -42 60 -80 101 -196 15 -43 42 -100 59 -125
33 -48 189 -182 212 -182 7 0 21 25 30 55 10 30 21 52 26 47 4 -4 12 -95 17
-202 6 -107 17 -231 26 -275 23 -124 20 -197 -15 -301 -91 -265 -140 -489
-140 -634 0 -43 9 -120 19 -172 32 -156 43 -324 46 -699 2 -266 6 -362 16
-380 8 -16 12 -62 11 -135 -1 -138 -27 -226 -102 -339 -59 -92 -77 -145 -60
-185 17 -41 66 -87 155 -146 108 -71 215 -185 215 -229 0 -9 6 -22 13 -30 8
-7 21 -39 31 -72 46 -155 60 -190 98 -245 45 -64 107 -108 153 -108 15 0 54
-14 87 -30 74 -38 107 -38 173 0 49 28 53 34 58 73 3 29 -1 50 -12 66 -28 42
-49 86 -44 94 7 11 -54 84 -86 103 -14 8 -46 46 -69 84 -36 59 -41 72 -32 95
15 40 12 74 -12 123 -13 28 -31 49 -48 55 -23 9 -33 27 -64 113 -30 82 -35
107 -27 123 15 28 13 101 -4 131 -22 39 -17 116 20 285 7 36 11 94 8 145 -3
61 1 115 15 190 12 57 18 108 16 112 -5 8 53 338 92 516 65 299 92 530 103
877 9 258 10 273 36 340 17 44 30 104 36 160 20 215 39 378 58 485 11 63 23
141 26 173 l7 58 24 -22 c18 -16 24 -33 24 -62 0 -55 28 -89 154 -185 105 -82
133 -115 167 -200 l20 -47 -5 170 -4 170 40 144 c44 159 45 162 18 421 -21
205 -84 535 -131 690 -21 67 -89 216 -119 260 -9 14 -20 38 -24 54 -6 24 -2
34 25 62 18 19 36 34 40 34 14 0 20 -71 9 -111 -9 -33 -8 -45 5 -65 8 -13 20
-24 25 -24 5 0 25 30 43 68 41 81 52 157 48 329 -3 121 -3 122 21 127 79 17
449 56 530 56 90 0 103 -3 186 -39 49 -21 116 -57 150 -80 33 -22 66 -41 72
-41 6 0 51 23 101 51 88 50 210 151 198 163 -4 4 -28 -5 -55 -19 -46 -24 -49
-25 -61 -9 -22 29 -16 82 12 109 35 36 79 33 139 -10 71 -51 144 -75 224 -75
108 0 139 18 83 46 -82 42 -139 165 -96 208 27 27 83 31 134 10 36 -15 51 -28
69 -64 20 -39 23 -57 20 -130 -3 -72 -8 -95 -36 -149 -17 -35 -32 -70 -32 -77
0 -24 38 -25 137 -5 166 34 237 64 323 136 38 31 39 34 18 38 -21 4 -20 4 4 6
20 1 41 -15 94 -69 37 -39 90 -84 118 -102 28 -17 74 -46 101 -65 69 -46 180
-89 277 -109 125 -25 264 -4 171 26 -21 7 -65 26 -97 42 -53 27 -57 31 -41 41
14 7 52 7 131 -1 141 -15 268 -15 336 -1 85 18 238 102 238 131 0 6 -12 8 -32
4 -28 -5 -24 -1 23 25 31 17 93 59 137 94 78 62 110 99 95 108 -5 2 -48 -6
-98 -18 -171 -42 -247 -42 -116 0 85 28 209 120 189 140 -4 4 -42 0 -85 -9
-43 -9 -118 -19 -166 -23 l-89 -6 -87 -74 c-129 -112 -159 -127 -250 -127
-136 0 -133 6 92 141 111 67 240 143 287 169 l84 48 -44 12 c-29 7 -49 7 -57
1 -9 -6 -22 -4 -40 8 -14 10 -118 48 -231 86 -210 70 -228 73 -249 34 -7 -12
-14 -13 -41 -3 -25 10 -39 10 -64 0 -42 -16 -45 -10 -10 25 20 20 48 33 83 41
162 34 234 24 380 -50 99 -50 102 -51 148 -40 67 16 148 30 216 38 82 9 96 18
59 37 -49 25 -131 46 -212 54 -103 10 -57 20 95 22 154 1 158 15 22 70 -43 16
-108 36 -145 44 -55 11 -65 15 -50 24 15 8 12 12 -26 22 -57 15 -187 31 -204
24 -8 -3 -14 -2 -14 1 0 4 14 12 30 17 17 6 30 15 30 20 0 14 -39 11 -170 -16
-68 -14 -127 -25 -133 -25 -9 0 -6 24 9 77 6 21 4 22 -26 13 -18 -5 -41 -17
-50 -25 -14 -12 -19 -13 -22 -3 -4 10 -13 9 -49 -2 -66 -20 -71 -21 -109 -21
-40 0 -183 -35 -217 -52 -12 -7 -36 -33 -52 -58 -22 -35 -44 -54 -92 -78 -67
-33 -89 -37 -121 -20 -17 9 -19 17 -14 50 3 22 2 39 -3 39 -5 0 -56 -49 -113
-110 -58 -61 -107 -110 -110 -110 -3 0 -13 33 -23 73 -9 39 -19 78 -21 86 -3
10 -27 -7 -75 -55 -48 -47 -69 -62 -64 -46 9 32 -13 28 -72 -12 -34 -23 -73
-39 -127 -50 -43 -9 -106 -28 -139 -42 -100 -42 -97 -42 -90 2 6 37 6 37 -23
31 -26 -5 -29 -3 -30 19 -1 14 -5 28 -9 32 -3 4 -57 -46 -118 -110 -120 -125
-195 -180 -332 -241 -68 -30 -102 -38 -220 -51 -77 -9 -233 -27 -346 -41 -114
-14 -214 -25 -222 -25 -9 0 -27 24 -42 57 -25 51 -25 57 -10 65 13 8 14 13 4
24 -6 8 -9 14 -6 14 3 0 -6 39 -19 88 -36 127 -63 347 -74 597 -16 373 -35
521 -90 735 -11 41 -24 104 -30 138 -6 35 -16 75 -21 89 -13 36 -5 39 31 13
17 -12 33 -20 35 -18 2 2 -9 46 -26 98 -25 77 -31 112 -31 185 1 83 -2 94 -29
137 -26 40 -30 57 -34 135 -3 74 -34 227 -51 255 -3 5 -18 59 -34 121 -15 61
-31 120 -35 131 -7 16 -6 17 13 7 35 -19 37 -12 2 12 -19 12 -39 36 -47 54
l-12 31 67 -30 c37 -17 85 -43 107 -58 22 -15 70 -43 106 -64 60 -33 67 -40
77 -79 13 -54 13 -63 -6 -297 -19 -238 -21 -392 -5 -445 15 -50 90 -163 149
-227 30 -32 44 -56 44 -75 0 -72 64 -273 135 -428 43 -92 162 -245 191 -245
21 0 17 16 -8 37 -13 10 -39 38 -59 63 -42 54 -56 111 -64 265 l-5 110 20 -40
c11 -22 20 -60 21 -85 2 -44 2 -44 8 -10 l6 35 23 -36 c12 -20 29 -42 37 -49
18 -15 16 -10 -32 90 -25 51 -33 86 -41 163 -5 55 -14 102 -19 105 -13 8 -28
132 -19 159 4 11 13 20 21 20 8 0 11 -5 8 -10 -8 -13 -4 -128 5 -142 4 -5 10
17 13 50 5 50 6 43 6 -40 0 -78 6 -119 27 -189 14 -48 26 -94 26 -102 0 -7 16
-46 35 -86 37 -80 125 -193 171 -222 24 -16 23 -12 -12 25 -56 59 -105 131
-137 203 -29 63 -59 166 -49 166 4 0 18 -26 31 -58 27 -63 52 -105 58 -99 2 3
-5 20 -16 38 -29 50 -59 154 -70 244 -19 149 -20 170 -11 185 11 17 15 0 31
-130 6 -52 17 -118 25 -147 17 -66 65 -162 93 -187 27 -25 26 -18 -4 41 -14
26 -28 71 -31 98 l-6 50 30 -51 c46 -77 148 -154 202 -153 8 0 -10 11 -40 25
-88 40 -147 107 -157 178 -4 29 -2 28 22 -14 49 -85 143 -160 174 -140 9 5 1
16 -30 38 -24 16 -54 41 -66 54 -27 29 -68 120 -77 173 -4 22 -9 51 -12 65 -4
22 -3 23 5 5 10 -20 10 -20 10 0 1 11 -3 36 -9 55 -8 29 -7 38 9 54 19 18 19
18 29 -25 l10 -44 -1 43 c0 23 3 45 7 50 14 14 36 -32 37 -77 1 -41 2 -43 9
-16 4 17 5 44 2 60 -8 52 5 24 48 -100 22 -66 38 -102 35 -81 -4 22 -20 79
-36 127 -29 88 -37 139 -20 139 19 0 130 112 156 156 25 42 27 57 30 163 1 64
5 127 8 141 4 14 2 10 -5 -7 -6 -18 -15 -33 -19 -33 -5 0 -9 -8 -9 -18 0 -32
-13 -33 -33 -5 -13 19 -17 21 -12 8 4 -14 3 -17 -4 -10 -6 6 -12 24 -14 41 -2
16 -10 41 -17 54 -7 14 -13 27 -12 30 1 3 -2 5 -7 5 -18 0 -122 124 -120 142
4 23 -36 86 -55 89 -37 5 -78 50 -118 127 -60 117 -139 192 -317 302 -142 89
-145 91 -200 175 -45 69 -67 91 -111 117 -101 58 -96 50 -71 117 25 68 42 214
31 271 -4 22 -8 32 -9 21 -1 -14 -4 -16 -15 -7 -7 6 -22 9 -32 5 -12 -4 -15
-3 -7 3 8 6 6 14 -7 31 -10 12 -20 19 -23 15 -2 -5 -2 -2 0 5 1 7 -5 25 -14
39 -13 20 -14 28 -5 31 6 2 12 11 12 20 0 10 7 26 15 36 8 11 15 25 15 30 -1
6 -8 -2 -17 -19 -9 -16 -18 -25 -20 -18 -2 7 -10 10 -17 7 -8 -3 -16 4 -19 16
-3 12 -9 20 -14 17 -4 -3 -8 11 -8 31 0 19 -6 37 -13 39 -8 3 -10 -1 -5 -13 4
-12 3 -15 -6 -10 -7 5 -10 14 -7 22 3 8 2 14 -2 14 -4 0 -15 13 -24 28 -10 16
-48 59 -86 96 -84 81 -157 200 -166 270 -3 27 -13 60 -21 73 -9 13 -11 23 -6
23 6 0 8 7 5 15 -4 9 0 15 9 15 19 0 29 37 13 53 -7 7 -17 26 -23 42 -9 28 -7
34 34 78 46 49 47 62 8 77 -18 7 -22 14 -18 32 4 18 3 20 -6 8 -8 -11 -11 -2
-10 40 0 40 3 49 9 35 7 -16 9 -13 8 15 0 46 -15 141 -18 115 -1 -15 -4 -13
-11 10 -5 17 -7 36 -4 43 3 7 1 11 -4 8 -5 -3 -16 5 -25 19 -16 25 -94 71
-103 61 -3 -3 10 -11 28 -19 40 -17 74 -52 84 -87 7 -23 4 -22 -26 10 -19 20
-51 49 -71 64 -21 16 -36 32 -33 36 3 5 1 10 -3 12 -12 4 -23 78 -13 78 5 0
20 -9 35 -21 14 -11 26 -16 26 -11 0 16 -57 72 -73 72 -9 0 -28 5 -44 12 -15
6 -31 11 -35 10 -4 -1 -35 34 -68 79 -59 77 -142 153 -205 186 -16 9 -53 33
-81 55 -56 42 -90 47 -125 19z m66 -1 c8 -13 -5 -13 -25 0 -13 8 -13 10 2 10
9 0 20 -4 23 -10z m-11 -16 c27 -10 18 -25 -11 -18 -37 9 -53 24 -26 24 12 0
28 -3 37 -6z m-694 -514 c0 -27 -3 -50 -7 -50 -9 0 -15 68 -8 88 9 25 15 10
15 -38z m1235 -142 c14 -29 25 -62 24 -73 l0 -20 -9 20 c-28 68 -48 125 -44
125 3 0 16 -24 29 -52z m112 -60 c-3 -7 -5 -2 -5 12 0 14 2 19 5 13 2 -7 2
-19 0 -25z m-1323 -171 c3 -13 1 -36 -3 -52 l-9 -30 -1 30 c-1 17 -4 40 -7 53
-4 12 -2 22 4 22 5 0 12 -10 16 -23z m1358 -167 c5 -35 -7 -41 -16 -7 -8 32
-7 49 3 43 5 -3 11 -19 13 -36z m-1344 -127 c17 -41 10 -232 -8 -263 -14 -23
-15 -19 -18 74 -2 64 1 103 9 112 8 10 8 14 0 14 -6 0 -11 18 -11 45 0 51 12
58 28 18z m2 -334 c-7 -11 -14 -18 -17 -15 -3 3 0 12 7 21 18 21 23 19 10 -6z
m-156 -292 c-54 -76 -94 -170 -108 -253 l-14 -79 -1 62 c-1 73 25 153 72 216
38 51 68 102 63 109 -1 3 2 2 8 -3 6 -6 0 -23 -20 -52z m76 -42 c-10 -39 -19
-61 -19 -50 -1 11 4 38 10 60 15 57 19 68 24 64 2 -3 -4 -36 -15 -74z m-30
-14 c-4 -17 -11 -61 -15 -98 -10 -96 -23 -143 -41 -143 -8 0 -13 4 -10 9 3 5
12 54 20 108 8 56 21 112 31 127 22 34 26 33 15 -3z m-87 -84 c-3 -20 -9 -37
-14 -37 -4 0 -11 -21 -15 -47 -10 -69 -26 -91 -20 -26 7 58 11 75 34 120 20
40 23 38 15 -10z m16 -104 c-9 -41 -14 -51 -17 -34 -4 26 19 122 26 103 2 -6
-2 -38 -9 -69z m1971 -63 l-11 -25 6 25 c2 14 6 43 7 65 l1 40 4 -40 c2 -23
-1 -52 -7 -65z m-34 -116 c-8 -21 -15 -32 -15 -23 -1 22 22 86 26 73 2 -5 -3
-28 -11 -50z m68 -133 c20 -16 47 -42 58 -57 l21 -27 -22 13 c-46 24 -119 100
-97 100 2 0 20 -13 40 -29z m-133 -254 c36 -48 32 -64 -7 -26 -18 18 -32 35
-29 37 3 3 0 11 -7 19 -8 10 -8 12 4 8 8 -3 26 -20 39 -38z m-35 -128 c4 -8 1
-8 -14 0 -12 6 -24 16 -28 22 -4 8 -1 8 14 0 12 -6 24 -16 28 -22z m820 -182
c14 -22 23 -41 21 -43 -6 -6 -44 41 -108 131 l-50 70 56 -60 c31 -33 67 -77
81 -98z m-528 24 c3 -8 -11 -5 -34 7 -67 35 -83 54 -24 28 29 -12 56 -29 58
-35z m126 -122 c8 -41 8 -89 -1 -89 -3 0 -15 7 -25 17 -13 12 -18 30 -18 70 0
49 2 53 19 44 10 -6 21 -25 25 -42z m46 -80 c0 -45 -4 -68 -10 -64 -6 4 -9 36
-8 75 4 88 18 80 18 -11z m504 19 c23 -33 9 -36 -22 -5 -21 21 -23 27 -10 27
9 0 24 -10 32 -22z m-454 3 c0 -5 7 -17 16 -26 10 -9 21 -33 25 -53 4 -20 13
-55 20 -78 17 -58 8 -76 -38 -72 l-38 3 2 54 c1 32 7 57 15 62 8 6 9 9 1 9 -6
0 -13 22 -15 55 -1 30 0 55 5 55 4 0 7 -4 7 -9z m-115 -41 c18 0 25 -62 14
-129 -5 -33 -9 -74 -8 -93 1 -18 1 -88 0 -154 -2 -160 4 -195 52 -287 37 -74
39 -81 31 -130 l-9 -52 -46 65 c-97 138 -119 199 -119 339 0 81 11 72 20 -17
5 -55 7 -45 8 63 0 72 6 190 12 264 10 128 19 170 28 143 2 -7 9 -12 17 -12z
m464 -73 c23 -75 35 -147 22 -147 -4 0 -11 18 -15 40 -3 22 -17 74 -30 115
-16 51 -20 72 -11 65 8 -6 23 -39 34 -73z m-404 -75 c-8 -78 -15 -78 -15 2 0
45 4 65 11 61 6 -4 8 -28 4 -63z m621 -66 c58 -56 84 -88 79 -96 -5 -9 -4 -11
4 -6 15 10 41 -11 41 -33 0 -15 -56 -75 -103 -111 -16 -12 -20 -12 -28 1 -7
11 -9 11 -9 -3 0 -10 -4 -18 -10 -18 -5 0 -10 -10 -11 -22 l0 -23 -9 23 c-12
28 -5 47 26 67 13 8 24 21 24 27 0 7 -9 2 -20 -10 -41 -44 -48 -25 -52 139 -2
59 -6 105 -10 102 -5 -2 -8 0 -8 6 0 5 -3 16 -6 25 -11 28 3 18 92 -68z m27 4
c-6 -7 -63 57 -63 72 0 6 15 -6 34 -28 19 -21 32 -41 29 -44z m-126 18 c-3 -7
-5 -2 -5 12 0 14 2 19 5 13 2 -7 2 -19 0 -25z m-363 -153 c-6 -91 -43 -259
-64 -292 -13 -21 -11 -10 16 87 22 81 43 252 39 317 -4 54 -4 56 5 18 5 -22 7
-80 4 -130z m-24 83 c0 -116 -44 -348 -67 -355 -19 -7 -31 56 -36 187 -6 178
-3 192 41 213 59 26 62 24 62 -45z m-141 -140 c1 -161 3 -175 26 -226 27 -58
30 -72 17 -72 -5 0 -21 28 -35 63 -28 66 -35 138 -29 320 4 156 20 93 21 -85z
m550 72 c1 -45 -2 -60 -9 -50 -5 8 -9 47 -9 85 0 48 3 64 9 50 5 -11 9 -49 9
-85z m-109 17 c0 -5 -4 -5 -10 -2 -5 3 -10 14 -10 23 0 15 2 15 10 2 5 -8 10
-19 10 -23z m-165 -96 c-3 -42 -11 -93 -16 -115 -6 -21 -8 -45 -5 -53 6 -15
-22 -128 -30 -120 -2 2 5 83 16 180 11 98 20 182 20 188 0 5 5 7 11 4 7 -5 8
-33 4 -84z m165 27 c0 -9 -4 -20 -10 -23 -6 -4 -10 9 -10 32 0 28 3 34 10 23
5 -8 10 -23 10 -32z m-135 -55 c-4 -38 -15 -87 -26 -109 -17 -34 -18 -35 -13
-9 20 93 23 114 24 160 0 36 3 46 11 38 8 -8 9 -34 4 -80z m485 25 c0 -5 -9
-28 -21 -51 -22 -44 -40 -97 -34 -97 2 0 15 19 29 43 14 23 26 37 26 32 0 -17
-49 -86 -93 -132 -39 -41 -67 -57 -51 -30 5 8 2 8 -9 -2 -20 -16 -23 -25 -4
-15 9 5 9 3 -1 -7 -27 -30 -39 27 -25 126 5 43 10 50 57 80 61 39 96 71 96 88
1 13 30 -22 30 -35z m-240 -28 c0 -11 -4 -20 -10 -20 -5 0 -10 9 -10 20 0 11
5 20 10 20 6 0 10 -9 10 -20z m10 -44 c0 -16 -18 -31 -27 -22 -8 8 5 36 17 36
5 0 10 -6 10 -14z m-2905 -114 c-6 -46 -9 -53 -16 -35 -12 31 1 131 14 108 5
-10 6 -41 2 -73z m2900 68 c-3 -5 -11 -10 -16 -10 -6 0 -7 5 -4 10 3 6 11 10
16 10 6 0 7 -4 4 -10z m-3043 -109 c-11 -41 -22 -69 -25 -64 -4 6 3 43 15 83
28 92 34 79 10 -19z m3029 36 c-8 -8 -11 -5 -11 9 0 27 14 41 18 19 2 -9 -1
-22 -7 -28z m-3002 -99 c-7 -50 -17 -84 -22 -81 -6 4 -7 -5 -3 -21 16 -65 16
-80 0 -41 -17 44 -15 83 13 205 22 97 30 58 12 -62z m2599 26 c2 -56 -1 -83
-8 -79 -5 3 -10 22 -10 41 0 21 -4 33 -10 29 -5 -3 -10 -3 -10 2 0 7 31 93 34
93 1 0 3 -39 4 -86z m147 14 c-7 -52 -9 -58 -16 -36 -7 26 8 114 18 104 3 -3
2 -33 -2 -68z m159 35 c-10 -40 -14 -41 -14 -5 0 18 5 32 10 32 6 0 8 -11 4
-27z m122 -58 c-3 -8 -12 -15 -21 -15 -18 0 -20 32 -3 63 11 22 11 22 21 -6 5
-15 6 -34 3 -42z m-2892 -22 c3 -27 2 -51 -4 -57 -7 -7 -10 -4 -10 10 0 10 -3
36 -6 57 -4 22 -3 37 3 37 6 0 13 -21 17 -47z m2846 17 c0 -21 -5 -30 -16 -30
-11 0 -14 5 -10 16 3 9 6 22 6 30 0 8 5 14 10 14 6 0 10 -13 10 -30z m-174
-17 c-11 -11 -19 6 -11 24 8 17 8 17 12 0 3 -10 2 -21 -1 -24z m-86 2 c0 -8
-4 -15 -10 -15 -5 0 -7 7 -4 15 4 8 8 15 10 15 2 0 4 -7 4 -15z m181 -28 c-13
-13 -15 1 -4 30 7 17 8 17 11 -1 2 -10 -1 -23 -7 -29z m-2941 -245 c13 -63 24
-70 33 -22 2 14 6 -31 7 -100 2 -69 5 -105 7 -80 5 63 12 92 22 86 5 -3 12 4
16 17 6 21 7 20 23 -13 l16 -35 5 35 c9 50 22 23 29 -55 3 -48 8 -62 18 -58
16 6 19 -23 3 -32 -11 -8 -3 -189 11 -260 5 -22 7 -41 5 -43 -10 -10 -67 98
-91 172 -15 45 -31 87 -37 94 -16 20 -29 14 -21 -10 6 -22 6 -22 -13 2 -11 14
-37 59 -58 100 -21 41 -50 93 -65 115 -15 22 -35 55 -45 74 l-17 34 63 125 64
125 6 -104 c3 -57 12 -132 19 -167z m2850 233 c0 -8 -4 -15 -10 -15 -5 0 -10
7 -10 15 0 8 5 15 10 15 6 0 10 -7 10 -15z m-153 -52 c-3 -10 -5 -4 -5 12 0
17 2 24 5 18 2 -7 2 -21 0 -30z m-140 -15 c-3 -7 -5 -2 -5 12 0 14 2 19 5 13
2 -7 2 -19 0 -25z m91 -46 c-1 -15 4 -38 11 -50 7 -13 10 -26 7 -30 -3 -3 1
-16 9 -29 19 -28 65 -343 51 -343 -3 0 -12 24 -22 53 -21 66 -25 72 -34 56 -5
-8 -20 25 -39 87 -33 108 -49 188 -33 165 6 -9 8 19 5 80 l-4 94 25 -28 c17
-18 25 -38 24 -55z m-2498 8 c0 -27 5 -52 10 -55 12 -8 13 -165 1 -165 -15 0
-20 25 -27 156 -5 95 -4 125 4 120 7 -4 12 -29 12 -56z m2437 8 c-3 -8 -6 -5
-6 6 -1 11 2 17 5 13 3 -3 4 -12 1 -19z m0 -50 c-3 -8 -6 -5 -6 6 -1 11 2 17
5 13 3 -3 4 -12 1 -19z m-2567 -52 c0 -26 -6 -18 -14 19 -5 22 -4 26 4 15 5
-8 10 -24 10 -34z m99 -13 l-1 -58 -10 43 c-5 24 -7 50 -4 58 11 28 16 13 15
-43z m2464 -38 c9 -38 28 -103 42 -144 14 -41 23 -76 21 -78 -8 -8 -70 196
-90 292 -13 61 12 -1 27 -70z m172 -30 c4 -21 3 -25 -3 -15 -15 24 -26 67 -14
55 6 -5 13 -23 17 -40z m279 -51 c3 -8 2 -12 -4 -9 -6 3 -10 10 -10 16 0 14 7
11 14 -7z m36 -54 c12 -16 19 -30 16 -30 -2 0 -14 14 -26 30 -12 17 -19 30
-16 30 2 0 14 -13 26 -30z m-2885 -40 c3 -5 1 -10 -4 -10 -6 0 -11 5 -11 10 0
6 2 10 4 10 3 0 8 -4 11 -10z m-765 -30 c6 -11 8 -20 6 -20 -3 0 -10 9 -16 20
-6 11 -8 20 -6 20 3 0 10 -9 16 -20z m800 -127 c22 -120 23 -141 7 -163 -15
-21 -15 -21 -21 17 -3 21 -8 77 -12 126 -8 105 7 117 26 20z m-645 -114 c17
-32 15 -49 -2 -27 -13 16 -26 58 -19 58 3 0 13 -14 21 -31z m2361 -225 c19
-65 34 -165 24 -159 -4 3 -10 22 -14 42 -3 21 -13 51 -21 67 -14 26 -21 106
-10 106 2 0 12 -25 21 -56z m14 -195 c10 -30 19 -46 20 -36 1 41 19 9 53 -90
45 -135 56 -176 58 -233 2 -27 14 -65 31 -96 33 -59 35 -85 9 -101 -16 -10
-20 -8 -31 15 -19 39 -108 294 -150 428 -6 17 -7 44 -4 61 3 17 -1 45 -10 67
-19 45 -21 65 -6 50 6 -6 19 -35 30 -65z m427 -1024 c40 -96 31 -140 -40 -197
l-34 -27 -11 22 c-6 12 -22 49 -37 82 l-26 60 32 -33 c40 -40 50 -35 16 10
-14 18 -37 57 -51 86 -20 40 -23 52 -12 52 8 0 18 -4 21 -10 9 -15 25 -12 25
6 0 12 10 14 46 12 l46 -3 25 -60z m-620 -5067 c-3 -8 -6 -5 -6 6 -1 11 2 17
5 13 3 -3 4 -12 1 -19z"/>
<path d="M7932 8540 c0 -14 2 -19 5 -12 2 6 2 18 0 25 -3 6 -5 1 -5 -13z"/>
<path d="M8641 8824 c0 -11 3 -14 6 -6 3 7 2 16 -1 19 -3 4 -6 -2 -5 -13z"/>
<path d="M8652 8760 c0 -19 2 -27 5 -17 2 9 2 25 0 35 -3 9 -5 1 -5 -18z"/>
<path d="M8734 8488 l-29 -33 33 29 c30 28 37 36 29 36 -2 0 -16 -15 -33 -32z"/>
<path d="M7294 11088 c-4 -6 0 -15 9 -20 9 -5 24 -24 33 -43 9 -19 20 -35 25
-35 5 0 0 15 -11 33 -11 17 -20 39 -20 48 0 20 -27 33 -36 17z"/>
<path d="M7306 11005 c8 -37 14 -45 14 -19 0 10 -5 26 -10 34 -8 11 -9 7 -4
-15z"/>
<path d="M7310 10944 c0 -6 7 -19 16 -30 14 -18 14 -18 3 6 -14 31 -19 36 -19
24z"/>
<path d="M7591 10594 c0 -11 3 -14 6 -6 3 7 2 16 -1 19 -3 4 -6 -2 -5 -13z"/>
<path d="M5765 10558 l-40 -43 43 40 c39 36 47 45 39 45 -2 0 -21 -19 -42 -42z"/>
<path d="M5689 10493 l-24 -28 28 24 c15 14 27 26 27 28 0 8 -8 1 -31 -24z"/>
<path d="M7695 10370 c-3 -5 1 -10 10 -10 9 0 13 5 10 10 -3 6 -8 10 -10 10
-2 0 -7 -4 -10 -10z"/>
<path d="M5537 10149 c4 -13 8 -18 11 -10 2 7 -1 18 -6 23 -8 8 -9 4 -5 -13z"/>
<path d="M8315 9514 c69 -106 209 -305 219 -311 10 -7 -21 44 -45 72 -24 29
-120 172 -151 225 -14 25 -36 54 -47 64 -12 11 -1 -11 24 -50z"/>
<path d="M7630 9320 c8 -5 20 -10 25 -10 6 0 3 5 -5 10 -8 5 -19 10 -25 10 -5
0 -3 -5 5 -10z"/>
<path d="M7718 9223 c6 -2 18 -2 25 0 6 3 1 5 -13 5 -14 0 -19 -2 -12 -5z"/>
<path d="M7780 9220 c0 -5 17 -10 38 -10 27 0 33 3 22 10 -20 13 -60 13 -60 0z"/>
<path d="M8640 9067 c0 -2 15 -16 33 -33 l32 -29 -29 33 c-28 30 -36 37 -36
29z"/>
<path d="M8670 8997 c30 -32 56 -57 58 -57 10 0 -56 74 -82 92 -21 14 -13 3
24 -35z"/>
<path d="M8740 9046 c0 -2 8 -10 18 -17 15 -13 16 -12 3 4 -13 16 -21 21 -21
13z"/>
<path d="M8802 8995 c15 -17 34 -46 42 -65 8 -19 15 -29 16 -22 0 22 -27 66
-57 92 l-28 25 27 -30z"/>
<path d="M8733 8980 c10 -14 31 -45 47 -69 17 -25 30 -40 30 -35 0 15 -57 99
-78 116 -15 12 -15 11 1 -12z"/>
</g>
</svg>
