<?xml version="1.0" standalone="no"?>
<!DOCTYPE svg PUBLIC "-//W3C//DTD SVG 20010904//EN"
 "http://www.w3.org/TR/2001/REC-SVG-20010904/DTD/svg10.dtd">
<svg version="1.0" xmlns="http://www.w3.org/2000/svg"
 width="979.000000pt" height="1280.000000pt" viewBox="0 0 979.000000 1280.000000"
 preserveAspectRatio="xMidYMid meet">
<metadata>
Created by potrace 1.15, written by Peter Selinger 2001-2017
</metadata>
<g transform="translate(0.000000,1280.000000) scale(0.100000,-0.100000)"
fill="#000000" stroke="none">
<path d="M4455 12445 c-159 -40 -319 -146 -480 -317 l-76 -80 -40 46 c-22 25
-52 49 -65 52 -61 15 -70 -53 -23 -170 17 -43 28 -80 24 -84 -4 -4 -28 16 -54
44 -26 28 -59 59 -74 69 l-27 17 0 -33 c0 -47 22 -142 68 -305 44 -155 42
-108 12 -479 -8 -91 -8 -131 -1 -133 6 -2 11 -13 12 -25 1 -20 2 -20 9 3 19
60 8 -103 -15 -220 -14 -69 -25 -152 -24 -185 l1 -60 12 40 c11 38 12 39 19
15 4 -14 7 -36 7 -50 0 -20 2 -22 10 -10 7 11 10 5 10 -22 0 -21 4 -38 9 -38
5 0 21 30 35 68 l26 67 -4 -75 c-3 -41 -14 -102 -24 -135 -19 -58 -19 -103 -1
-73 6 10 9 8 9 -7 0 -18 2 -18 20 5 11 14 18 30 15 37 -2 6 7 33 21 60 13 26
22 37 18 23 -3 -14 -12 -35 -20 -47 -18 -29 -18 -34 2 -26 14 5 15 3 4 -16
-14 -27 -6 -39 14 -22 13 11 16 7 24 -21 10 -41 25 -39 34 4 5 23 6 17 3 -20
-4 -55 3 -56 34 -7 11 18 12 16 7 -14 -8 -43 -3 -38 34 35 26 54 29 57 30 29
1 -16 5 -38 8 -48 13 -32 47 5 61 67 12 53 31 68 31 24 0 -13 5 -18 13 -15 10
4 18 -16 29 -74 l15 -79 -71 -20 c-389 -112 -517 -233 -615 -582 -15 -57 -47
-195 -70 -306 -45 -217 -132 -492 -266 -842 -70 -181 -106 -259 -183 -395 -95
-168 -239 -536 -403 -1027 -150 -454 -206 -607 -236 -654 -8 -12 -27 -24 -43
-28 -24 -4 -30 -11 -30 -30 0 -22 -7 -26 -72 -41 -40 -9 -136 -21 -213 -25
-163 -10 -201 -21 -258 -70 -94 -82 -292 -205 -385 -240 -35 -13 -66 -29 -69
-37 -9 -24 18 -43 60 -43 38 0 39 -1 23 -19 -19 -21 -12 -48 15 -56 22 -7 75
17 194 90 49 30 101 55 115 55 14 0 39 8 55 18 17 9 44 16 62 14 l33 -3 -78
-62 c-42 -34 -98 -72 -124 -85 -26 -13 -71 -49 -100 -81 -86 -93 -134 -210
-139 -343 -2 -35 -7 -70 -12 -79 -7 -10 -4 -27 7 -51 14 -28 15 -41 6 -57 -8
-16 -7 -26 6 -46 10 -15 16 -49 17 -89 1 -37 7 -70 14 -78 7 -6 13 -20 13 -29
0 -9 11 -59 25 -110 14 -52 34 -135 45 -186 24 -114 52 -196 85 -245 14 -21
30 -65 36 -96 6 -31 16 -82 23 -112 8 -30 19 -82 26 -115 7 -33 18 -74 26 -91
7 -17 20 -55 28 -85 8 -30 19 -67 25 -82 6 -16 8 -39 5 -52 -4 -17 0 -26 13
-33 25 -14 40 -80 53 -227 13 -143 20 -169 65 -270 19 -42 35 -81 35 -87 0 -5
6 -24 14 -41 16 -37 29 -177 16 -177 -5 0 -16 -7 -25 -16 -19 -19 -7 -39 30
-48 31 -8 34 -46 5 -64 -27 -17 -25 -29 9 -46 33 -18 48 -56 26 -69 -22 -12
-18 -33 10 -61 l25 -26 -20 -20 c-23 -23 -18 -41 19 -74 21 -19 29 -66 11 -66
-5 0 -14 -9 -20 -20 -9 -16 -6 -24 15 -42 32 -28 35 -85 4 -111 -20 -18 -20
-19 -3 -38 15 -17 16 -27 5 -106 -17 -131 -13 -373 7 -395 8 -10 21 -18 28
-18 28 0 37 -42 31 -138 -7 -97 1 -132 29 -132 13 0 15 -11 9 -77 -13 -142
-32 -216 -105 -398 -103 -257 -130 -345 -130 -420 0 -45 5 -69 18 -84 61 -75
265 7 411 165 118 128 190 263 231 432 10 43 30 126 44 187 25 102 98 277 138
329 14 18 15 17 11 -11 -7 -42 20 -87 62 -107 43 -21 157 -23 230 -6 259 63
317 91 451 225 120 119 143 162 233 433 62 184 96 264 157 359 49 77 89 160
108 222 20 69 20 180 0 251 -9 30 -20 74 -24 97 -20 95 -73 147 -142 141 -45
-4 -43 -8 -60 161 -9 93 -9 126 0 129 28 9 79 50 99 81 30 44 29 89 -2 182
-14 41 -30 107 -36 147 -9 67 -8 77 11 114 18 35 19 44 8 74 -10 28 -9 36 5
52 19 21 23 67 6 78 -18 10 -4 301 16 342 28 55 -2 136 -74 207 -23 21 -41 45
-41 52 0 7 -20 51 -45 99 -25 47 -45 98 -45 113 0 38 -48 100 -99 131 -23 14
-60 39 -81 57 -50 40 -44 42 125 53 72 5 175 16 230 26 102 18 115 19 221 8
69 -6 152 11 243 51 35 15 101 30 174 40 l117 16 78 -28 c66 -23 92 -27 182
-27 176 0 330 61 462 183 63 59 71 63 64 38 -21 -86 -34 -220 -26 -269 11 -69
49 -177 88 -255 17 -34 41 -96 52 -139 12 -42 25 -84 29 -93 5 -9 11 -32 15
-52 13 -72 58 -73 91 -3 13 28 16 51 12 98 -19 196 -19 211 -4 230 14 18 16
17 62 -30 26 -27 99 -115 162 -196 108 -139 163 -198 184 -198 5 0 18 9 30 21
23 23 20 43 -17 101 -13 20 -20 39 -16 41 61 37 81 44 91 34 18 -18 31 3 51
80 37 140 36 169 -5 279 -43 117 -67 144 -173 203 -85 48 -218 145 -224 164
-2 7 -1 107 3 222 4 116 10 319 14 453 5 133 12 242 16 242 4 0 12 15 17 33
27 89 21 160 -17 201 -11 12 -22 43 -26 76 -3 30 -14 96 -22 145 -14 76 -16
182 -14 695 2 558 4 614 23 720 11 63 24 122 29 132 12 22 12 61 -1 74 -6 6
-5 57 1 139 18 223 -3 595 -40 723 -5 17 -8 32 -7 32 2 0 57 -24 123 -54 65
-30 233 -100 373 -156 140 -56 278 -112 305 -125 72 -34 425 -168 595 -226
189 -65 278 -85 430 -100 241 -22 460 20 546 106 95 95 -95 354 -351 476 -247
119 -1159 304 -1939 394 -121 14 -221 27 -223 29 -2 2 18 7 44 11 127 19 399
98 823 241 603 202 703 240 895 334 144 70 170 87 257 166 153 139 233 256
291 423 25 69 31 103 31 171 0 76 -3 91 -27 132 -45 78 -119 126 -265 172
-169 53 -339 53 -480 0 -75 -28 -306 -155 -410 -225 -163 -110 -449 -323 -657
-490 -254 -204 -278 -224 -564 -493 -117 -111 -217 -202 -221 -204 -4 -1 -31
16 -61 39 -30 22 -94 71 -144 109 -49 37 -101 80 -115 96 -14 16 -17 22 -7 15
15 -12 17 -11 17 11 0 14 9 37 20 51 11 14 20 33 20 43 0 9 3 14 7 11 4 -4 20
5 36 20 l29 28 -7 -25 c-5 -20 -1 -17 19 13 29 40 39 47 29 20 -7 -21 63 80
82 117 14 28 98 281 115 350 7 25 33 79 59 120 26 41 69 116 95 165 27 50 71
127 98 172 48 81 108 204 123 252 7 23 5 24 -25 17 -31 -6 -150 -82 -238 -154
-24 -19 -47 -31 -51 -26 -4 5 -13 45 -20 89 -7 44 -20 109 -28 145 -42 174
-173 371 -277 415 -55 23 -137 45 -171 45 -30 0 -38 7 -72 57 -50 76 -99 106
-201 127 -95 19 -186 19 -257 1z m-635 -586 c0 -6 -4 -7 -10 -4 -5 3 -10 11
-10 16 0 6 5 7 10 4 6 -3 10 -11 10 -16z m3654 -338 c3 -5 -20 -26 -52 -46
-56 -38 -56 -32 -3 28 25 27 45 34 55 18z m-110 -36 c-30 -40 -53 -48 -28 -10
9 14 21 25 26 25 5 0 6 5 3 10 -3 6 1 10 10 10 13 0 11 -7 -11 -35z m226 25
c13 -8 12 -10 -3 -10 -10 0 -49 -16 -87 -35 -68 -34 -124 -50 -65 -18 17 9 31
16 32 15 1 -1 17 12 35 28 33 31 62 37 88 20z m-312 -20 c-7 -11 -18 -20 -25
-20 -6 0 -21 -12 -33 -27 -11 -16 -17 -19 -12 -8 6 11 22 32 36 48 30 32 52
37 34 7z m406 1 c14 -5 -6 -15 -75 -34 -116 -33 -131 -34 -59 -2 30 13 63 22
74 18 11 -3 16 -1 12 5 -4 6 3 8 16 5 19 -4 20 -3 8 6 -17 12 -4 13 24 2z
m-498 -26 c-11 -8 -17 -15 -13 -15 4 0 3 -8 -2 -19 -7 -11 -25 -20 -46 -23
l-36 -4 23 19 c29 23 81 57 88 57 3 -1 -4 -7 -14 -15z m599 -4 c15 -6 4 -11
-46 -20 -91 -15 -102 -13 -44 9 57 21 62 22 90 11z m-556 -81 c-17 -27 -35
-53 -41 -56 -13 -8 -7 3 34 64 40 58 45 53 7 -8z m77 37 c-2 -17 -59 -97 -69
-97 -9 0 26 63 51 93 18 20 21 21 18 4z m321 7 c-3 -3 -12 -4 -19 -1 -8 3 -5
6 6 6 11 1 17 -2 13 -5z m227 -3 c4 -5 -4 -7 -16 -4 -16 3 -19 2 -10 -5 16
-11 -65 -22 -153 -21 l-60 2 65 8 c36 5 84 13 105 18 54 12 63 13 69 2z m-483
-27 c-19 -8 -42 -20 -50 -26 -9 -7 -5 0 8 15 15 16 34 27 50 27 24 -1 24 -2
-8 -16z m149 -3 c-32 -10 -134 -22 -128 -15 8 7 89 22 123 22 29 0 29 0 5 -7z
m-401 -46 c-16 -27 -27 -35 -47 -34 -26 2 -26 2 2 6 17 3 25 8 18 12 -20 12
-2 51 24 51 l23 0 -20 -35z m774 28 c-13 -2 -33 -2 -45 0 -13 2 -3 4 22 4 25
0 35 -2 23 -4z m-822 -30 c-12 -20 -14 -14 -5 12 4 9 9 14 11 11 3 -2 0 -13
-6 -23z m697 20 c-32 -2 -84 -2 -115 0 -32 2 -6 3 57 3 63 0 89 -1 58 -3z
m-783 -38 c-8 -19 -22 -51 -31 -71 -22 -52 -27 -36 -8 24 10 30 21 49 27 45 6
-4 8 0 4 10 -5 13 1 20 21 26 1 1 -5 -15 -13 -34z m375 31 c0 -2 -8 -10 -17
-17 -16 -13 -17 -12 -4 4 13 16 21 21 21 13z m45 -16 c-3 -5 -12 -10 -18 -10
-7 0 -6 4 3 10 19 12 23 12 15 0z m518 3 c-7 -2 -21 -2 -30 0 -10 3 -4 5 12 5
17 0 24 -2 18 -5z m-436 -9 c-3 -3 -12 -4 -19 -1 -8 3 -5 6 6 6 11 1 17 -2 13
-5z m166 -1 c-13 -2 -33 -2 -45 0 -13 2 -3 4 22 4 25 0 35 -2 23 -4z m-596
-59 c-3 -3 -12 -4 -19 -1 -8 3 -5 6 6 6 11 1 17 -2 13 -5z m358 -25 l70 -18
-58 0 c-32 -1 -56 3 -53 7 3 5 -23 7 -57 6 -60 -2 -60 -2 -12 4 30 4 44 10 34
13 -8 4 -35 3 -60 -1 -24 -5 -46 -7 -48 -4 -10 10 75 24 99 16 8 -3 47 -13 85
-23z m-561 -47 c-9 -29 -19 -52 -24 -52 -5 0 0 24 11 52 10 29 19 55 19 57 0
2 2 2 5 0 2 -3 -3 -28 -11 -57z m414 -2 c3 -7 -9 -10 -34 -8 -31 2 -39 8 -45
30 l-7 26 41 -18 c23 -11 43 -24 45 -30z m340 43 c-10 -2 -28 -2 -40 0 -13 2
-5 4 17 4 22 1 32 -1 23 -4z m-714 -37 c-3 -15 -8 -25 -11 -23 -2 3 -1 17 3
31 3 15 8 25 11 23 2 -3 1 -17 -3 -31z m266 10 c0 -8 -16 -16 -42 -20 -53 -9
-74 9 -27 22 49 15 69 14 69 -2z m580 4 c-47 -5 -96 -11 -110 -15 -17 -5 -22
-4 -15 3 15 16 43 20 130 19 l80 0 -85 -7z m-270 -31 c0 -12 -76 -21 -124 -14
-33 5 -46 12 -46 24 0 14 9 15 85 7 47 -6 85 -13 85 -17z m403 24 c-7 -2 -19
-2 -25 0 -7 3 -2 5 12 5 14 0 19 -2 13 -5z m-295 -10 c-10 -2 -28 -2 -40 0
-13 2 -5 4 17 4 22 1 32 -1 23 -4z m-779 -44 c-6 -19 -13 -40 -15 -48 -3 -8
-7 -12 -9 -9 -3 2 2 26 11 52 18 53 30 58 13 5z m-64 9 c-11 -36 -22 -41 -17
-8 2 16 9 30 14 30 5 0 6 -10 3 -22z m338 -3 c29 -6 36 -12 39 -36 l5 -29 -81
6 c-87 7 -114 14 -51 14 42 0 44 9 2 12 l-27 2 28 23 c15 12 32 21 39 18 6 -2
27 -7 46 -10z m144 -24 c10 -27 9 -29 -19 -35 -53 -11 -58 -8 -58 29 0 33 2
35 33 35 27 0 35 -5 44 -29z m478 20 c31 -7 17 -9 -67 -10 -62 -1 -109 3 -113
9 -8 12 122 13 180 1z m-292 -16 c33 0 56 -4 53 -10 -4 -11 -17 -11 -100 -1
-41 5 -56 5 -52 -3 4 -6 28 -12 54 -12 l47 -2 -50 -6 c-27 -4 -55 -10 -62 -14
-7 -4 -20 4 -32 19 -33 41 -27 48 32 38 28 -5 78 -9 110 -9z m454 -11 c-3 -3
-12 -4 -19 -1 -8 3 -5 6 6 6 11 1 17 -2 13 -5z m-960 -27 c-15 -12 -55 -46
-88 -75 -54 -48 -86 -63 -77 -37 4 13 170 134 183 134 6 0 -3 -10 -18 -22z
m826 16 c-7 -2 -21 -2 -30 0 -10 3 -4 5 12 5 17 0 24 -2 18 -5z m-108 -19
c-65 -14 -106 -17 -65 -4 l25 8 -27 1 c-16 1 -28 -4 -28 -11 0 -6 -3 -9 -6 -5
-17 17 14 27 84 26 l77 -1 -60 -14z m168 9 c-7 -2 -21 -2 -30 0 -10 3 -4 5 12
5 17 0 24 -2 18 -5z m-1157 -58 c-4 -26 -18 -57 -31 -73 l-24 -27 -1 31 c0 30
23 64 32 47 3 -4 3 -3 2 4 -4 16 17 76 23 69 3 -3 2 -26 -1 -51z m124 35 c0
-5 -9 -14 -20 -20 -18 -10 -19 -9 -8 14 10 23 28 27 28 6z m1077 14 c-3 -3
-12 -4 -19 -1 -8 3 -5 6 6 6 11 1 17 -2 13 -5z m40 -10 c-3 -3 -12 -4 -19 -1
-8 3 -5 6 6 6 11 1 17 -2 13 -5z m-845 -45 c3 -16 2 -31 0 -34 -9 -9 -62 -5
-62 4 0 5 -3 22 -6 38 -6 28 -5 29 29 25 30 -3 36 -8 39 -33z m407 20 c-12
-24 -121 -32 -117 -9 3 14 55 28 105 26 17 0 20 -4 12 -17z m371 6 c59 -10 66
-13 35 -14 -22 0 -62 6 -90 13 -63 18 -42 18 55 1z m-861 -66 c1 -4 -16 -9
-36 -12 -21 -3 -45 -7 -53 -9 -8 -3 -12 -3 -7 -1 4 3 4 9 1 14 -3 6 -12 5 -22
-3 -13 -11 -14 -11 -8 0 4 7 29 28 54 47 l47 34 12 -32 c6 -18 12 -35 12 -38z
m160 65 c20 -4 31 -12 30 -23 0 -10 -2 -11 -6 -3 -2 6 -9 12 -14 12 -6 0 -7
-4 -4 -10 3 -5 -4 -10 -15 -10 -16 0 -20 5 -16 15 3 8 1 15 -4 15 -6 0 -10 -9
-10 -19 0 -16 8 -21 38 -24 l37 -4 -39 1 c-34 1 -41 5 -47 29 -8 30 -4 31 50
21z m165 0 c29 -11 17 -32 -21 -38 -21 -4 -46 -10 -57 -13 -12 -3 -16 -1 -12
6 4 6 3 11 -2 11 -5 0 -12 9 -15 20 -5 18 0 20 43 20 27 0 55 -3 64 -6z m281
-13 c16 -7 14 -9 -16 -12 -27 -4 -35 -1 -32 8 6 14 18 15 48 4z m150 -1 c13
-5 14 -9 5 -9 -8 0 -24 4 -35 9 -13 5 -14 9 -5 9 8 0 24 -4 35 -9z m-1150 -59
c-3 -55 -8 -67 -34 -81 -16 -8 -17 -6 -13 18 4 23 6 24 12 7 4 -10 9 -14 13
-9 3 6 2 16 -2 23 -6 10 16 90 25 91 1 0 0 -22 -1 -49z m845 -1 c-6 -11 -15
-18 -21 -14 -5 3 -50 0 -100 -7 -78 -11 -92 -11 -99 1 -8 12 4 17 63 26 40 6
94 12 120 13 45 1 47 0 37 -19z m165 11 c-11 -5 -26 -6 -34 -3 -9 3 -12 1 -7
-6 5 -8 -1 -12 -18 -12 -14 0 -26 2 -26 5 0 10 44 24 75 24 25 0 27 -2 10 -8z
m132 -7 c-3 -3 -12 -4 -19 -1 -8 3 -5 6 6 6 11 1 17 -2 13 -5z m-549 -36 c-2
-19 -9 -23 -38 -23 -27 0 -35 4 -34 17 1 10 -2 16 -6 13 -5 -3 -11 -1 -15 5
-4 6 13 10 45 10 48 0 51 -2 48 -22z m507 13 c34 -7 35 -9 10 -9 -16 0 -43 4
-60 8 -42 11 -1 11 50 1z m-935 -26 c0 -8 -18 -26 -39 -39 -22 -14 -43 -30
-46 -37 -6 -8 -10 -7 -16 2 -14 23 -11 27 38 63 48 35 63 37 63 11z m323 -5
c18 -29 18 -30 -2 -30 -10 0 -26 -2 -33 -5 -9 -4 -19 5 -27 21 -11 25 -11 26
5 13 14 -11 16 -11 10 -1 -6 10 -3 13 10 10 11 -2 18 -10 17 -16 -2 -7 2 -12
7 -12 6 0 10 4 10 9 0 15 -23 29 -55 34 -29 4 -29 4 5 6 30 1 39 -4 53 -29z
m-600 5 c-3 -9 -8 -14 -10 -11 -3 3 -2 9 2 15 9 16 15 13 8 -4z m402 -10 c34
-33 33 -57 -2 -53 -18 2 -28 9 -28 20 0 9 -4 20 -9 25 -5 4 -6 3 -2 -4 10 -18
-9 -16 -25 3 -10 13 -10 17 2 25 23 14 38 11 64 -16z m100 3 c15 -22 14 -23
-12 -30 -22 -6 -31 -3 -45 15 -16 21 -16 22 0 29 29 12 40 9 57 -14z m822 16
c-3 -3 -12 -4 -19 -1 -8 3 -5 6 6 6 11 1 17 -2 13 -5z m-1301 -83 c-15 -14
-16 -13 -16 5 0 11 6 32 13 47 l12 27 3 -32 c2 -18 -3 -37 -12 -47z m882 49
c-20 -28 -27 -30 -82 -30 -43 0 -65 5 -79 18 -18 16 -17 17 54 28 41 6 87 12
102 13 l28 1 -23 -30z m257 21 c23 -5 9 -9 -55 -14 -47 -4 -98 -10 -115 -13
l-30 -7 19 22 c16 18 29 21 85 20 36 -1 80 -4 96 -8z m-1200 -74 l-16 -32 7
30 c4 17 6 39 6 50 -1 19 0 19 9 2 8 -14 6 -27 -6 -50z m1372 57 c-3 -3 -12
-4 -19 -1 -8 3 -5 6 6 6 11 1 17 -2 13 -5z m-1005 -21 c22 -20 23 -49 2 -57
-9 -4 -17 -5 -18 -4 -1 2 -10 13 -20 25 -15 19 -16 25 -6 38 16 19 19 19 42
-2z m1071 10 c-7 -2 -21 -2 -30 0 -10 3 -4 5 12 5 17 0 24 -2 18 -5z m-679
-35 c-9 -14 -52 -9 -57 6 -4 10 2 16 21 18 27 3 45 -9 36 -24z m514 25 c-21
-2 -57 -2 -80 0 -24 2 -7 4 37 4 44 0 63 -2 43 -4z m-129 -7 c-7 -6 -162 -36
-166 -32 -5 5 113 33 146 35 13 0 22 -1 20 -3z m-469 -20 c0 -19 -34 -30 -66
-22 -36 9 -29 24 14 29 20 2 40 4 45 5 4 1 7 -4 7 -12z m743 7 c-7 -2 -19 -2
-25 0 -7 3 -2 5 12 5 14 0 19 -2 13 -5z m-1461 -43 c3 -18 -1 -35 -8 -41 -10
-8 -14 -2 -19 25 -7 36 0 60 15 51 4 -2 10 -18 12 -35z m231 26 c6 -15 -51
-76 -71 -76 -11 0 -13 4 -16 30 -1 9 61 58 75 60 4 0 9 -6 12 -14z m137 -38
c0 -18 -60 -32 -124 -29 -18 1 -18 2 -1 21 10 11 22 20 27 20 6 0 22 9 36 21
l26 20 18 -23 c10 -13 18 -26 18 -30z m238 35 c7 -24 -29 -27 -51 -4 l-22 22
34 -3 c19 -2 36 -9 39 -15z m312 -23 c-13 -24 -17 -26 -61 -34 -31 -6 -37 -3
-47 19 -9 20 -9 25 2 25 8 0 13 -7 12 -16 0 -9 6 -19 14 -21 10 -3 11 -2 3 4
-9 6 -12 47 -4 48 1 0 21 -1 46 -3 40 -4 44 -6 35 -22z m431 14 c96 -20 101
-22 95 -33 -3 -5 -40 0 -83 11 -43 11 -103 24 -133 28 l-55 7 51 2 c28 0 85
-6 125 -15z m-814 -13 c14 -23 6 -32 -46 -50 -29 -9 -38 -9 -50 4 -13 13 -13
17 3 34 10 11 30 22 45 24 14 2 28 5 31 6 3 0 11 -8 17 -18z m244 -12 c21 -40
-43 -60 -68 -21 -14 20 -14 22 0 22 10 0 14 -6 11 -14 -3 -8 -1 -16 4 -20 5
-3 8 5 7 17 -1 12 0 25 2 30 8 14 32 7 44 -14z m-829 -19 c3 -20 -1 -35 -13
-45 -15 -15 -17 -13 -23 20 -4 19 -4 40 -1 45 12 20 33 9 37 -20z m1108 20
c-34 -11 -60 -11 -35 0 11 5 29 8 40 8 16 0 15 -2 -5 -8z m-376 -29 c15 -27
14 -29 -7 -35 -12 -3 -27 -6 -33 -6 -12 0 -38 50 -29 58 3 3 5 1 5 -5 0 -5 10
-9 21 -9 12 1 24 -5 27 -13 3 -10 -1 -12 -17 -8 -11 3 -19 1 -15 -4 3 -5 11
-9 19 -9 34 0 27 46 -8 53 -22 4 -22 4 0 6 15 1 27 -8 37 -28z m524 22 c-10
-2 -28 -2 -40 0 -13 2 -5 4 17 4 22 1 32 -1 23 -4z m-1314 -55 c6 -29 -4 -47
-25 -48 -13 0 -20 52 -8 66 18 21 26 17 33 -18z m229 26 c12 -12 -6 -34 -50
-60 -34 -20 -48 -23 -56 -14 -9 8 -8 10 6 4 11 -4 17 -2 15 4 -2 6 13 24 32
41 37 32 43 35 53 25z m283 -35 c-23 -18 -69 -39 -86 -39 -4 0 -11 7 -14 16
-5 13 -4 14 7 6 10 -9 14 -8 14 3 0 8 -10 15 -21 16 -12 0 1 6 29 14 27 7 53
11 57 8 5 -2 8 1 8 8 0 8 4 8 15 -1 13 -11 12 -15 -9 -31z m161 34 c-3 -5 5
-17 16 -28 l20 -20 -12 22 c-17 33 -12 42 5 10 18 -33 18 -33 -17 -42 -20 -5
-28 -2 -33 11 -5 14 -4 15 9 4 9 -7 18 -10 22 -6 3 3 1 6 -5 6 -7 0 -12 7 -12
15 0 9 -6 12 -17 8 -15 -5 -14 -3 2 10 22 18 28 21 22 10z m658 -12 c49 -7 48
-8 -33 -12 -61 -3 -82 -1 -82 9 0 13 36 14 115 3z m-987 -7 c30 -9 60 -63 40
-75 -23 -15 -34 -10 -66 30 -21 27 -28 41 -19 44 17 7 19 7 45 1z m720 -11
c-12 -14 -38 -18 -38 -5 0 14 11 21 30 19 14 -1 16 -4 8 -14z m122 2 c0 -11
-12 -15 -46 -15 -30 0 -43 4 -38 11 3 6 22 9 40 7 19 -2 34 0 34 4 0 4 2 8 5
8 3 0 5 -7 5 -15z m-563 -39 c-10 -25 -45 -25 -62 0 -15 23 -14 24 17 32 35 9
55 -5 45 -32z m293 34 c0 -6 -12 -16 -26 -22 -21 -10 -27 -9 -34 3 -7 10 -3
16 13 21 34 9 47 9 47 -2z m513 3 c-7 -2 -19 -2 -25 0 -7 3 -2 5 12 5 14 0 19
-2 13 -5z m-1488 -70 c-7 -21 -22 -15 -29 13 -4 15 -2 32 6 41 11 13 13 11 20
-13 4 -16 6 -35 3 -41z m345 35 c12 -13 26 -31 31 -40 8 -16 5 -18 -23 -18
-18 -1 -44 -7 -58 -15 -28 -16 -78 -19 -99 -6 -11 7 -9 13 8 30 23 23 47 29
35 9 -4 -8 -3 -10 2 -5 5 5 9 13 9 18 0 9 53 47 67 48 4 1 17 -9 28 -21z m541
-11 c-12 -12 -54 -5 -58 10 -3 7 8 13 24 15 29 3 48 -11 34 -25z m432 16 c-7
-2 -19 -2 -25 0 -7 3 -2 5 12 5 14 0 19 -2 13 -5z m-717 -20 c20 -27 17 -33
-15 -33 -34 0 -48 25 -23 39 23 14 23 14 38 -6z m521 11 c-3 -3 -12 -4 -19 -1
-8 3 -5 6 6 6 11 1 17 -2 13 -5z m-310 -21 c5 -14 -67 -27 -80 -14 -6 6 1 13
24 19 39 11 51 10 56 -5z m-863 -9 c10 -26 7 -42 -9 -48 -20 -7 -37 33 -23 52
14 16 25 15 32 -4z m215 -26 c-6 -11 -21 -23 -34 -28 -13 -5 -26 -14 -30 -19
-4 -8 -12 -8 -26 0 -20 10 -18 13 22 42 24 18 47 31 51 30 5 -2 8 3 8 10 0 8
3 8 9 -2 6 -9 6 -22 0 -33z m361 17 c16 -19 14 -22 -48 -44 -51 -19 -62 -18
-62 4 0 14 48 37 61 29 5 -3 9 -2 8 3 -5 27 21 32 41 8z m188 -12 c2 -7 -4
-13 -15 -13 -15 0 -16 2 -3 11 12 8 11 9 -5 6 -11 -2 -19 -10 -17 -18 3 -11 1
-12 -10 -1 -11 11 -10 15 2 22 19 13 42 9 48 -7z m329 1 c18 -5 21 -10 13 -23
-6 -13 -19 -17 -42 -15 -30 3 -31 3 -8 -5 l25 -9 -25 0 c-14 0 -38 4 -55 8
l-30 8 30 1 c22 1 26 4 17 13 -9 9 -18 9 -37 0 -14 -6 -25 -8 -25 -3 0 18 97
36 137 25z m-1147 -30 c8 -19 7 -31 -2 -41 -10 -12 -13 -10 -23 14 -8 19 -9
32 -2 41 13 17 16 16 27 -14z m1265 16 c8 -13 -35 -13 -55 0 -11 7 -7 10 17
10 17 0 35 -4 38 -10z m-521 -9 c3 -5 -1 -12 -10 -15 -20 -8 -29 -1 -19 13 8
13 22 14 29 2z m-251 -15 c4 -11 -3 -13 -29 -11 -19 2 -34 -1 -34 -6 0 -6 10
-7 23 -4 44 14 2 -12 -49 -30 -57 -20 -77 -17 -94 14 -10 20 -8 21 43 21 29 0
57 4 63 9 5 5 23 11 39 14 17 2 31 5 31 6 1 0 4 -5 7 -13z m190 0 c4 -11 1
-13 -10 -9 -11 4 -14 2 -9 -5 4 -7 3 -12 -2 -12 -18 0 -21 29 -4 33 9 3 18 5
18 6 1 0 4 -6 7 -13z m658 5 c-11 -7 -10 -10 5 -14 14 -3 12 -5 -8 -6 -31 -1
-47 15 -21 22 30 8 39 7 24 -2z m-353 -37 c5 -60 -37 -69 -57 -13 -9 26 -8 31
12 39 32 13 42 7 45 -26z m437 26 c3 -5 -3 -10 -14 -10 -11 0 -23 5 -26 10 -3
6 3 10 14 10 11 0 23 -4 26 -10z m-1471 -29 c14 -26 12 -41 -4 -41 -11 0 -31
50 -25 61 9 14 13 11 29 -20z m1550 21 c3 -5 -8 -6 -25 -4 -16 2 -29 6 -29 8
0 8 49 4 54 -4z m-1346 -14 c17 -17 15 -35 -3 -42 -10 -4 -19 2 -24 17 -13 34
3 49 27 25z m134 -22 l26 -33 -33 -16 c-32 -15 -35 -15 -59 4 -33 26 -33 40 2
61 35 23 33 23 64 -16z m333 25 c9 -16 -35 -35 -48 -22 -9 9 -8 14 3 21 19 12
37 13 45 1z m279 -23 c5 -23 3 -28 -13 -28 -17 0 -31 18 -31 40 0 7 30 19 36
16 1 -1 4 -13 8 -28z m326 19 c-29 -15 -177 -57 -201 -57 -12 0 -14 8 -11 30
3 23 9 29 21 26 49 -15 90 -15 126 -2 22 8 51 15 65 15 l25 1 -25 -13z m-1313
-64 c-3 -2 -8 5 -12 16 -3 12 -11 21 -16 21 -6 0 -6 -7 1 -19 5 -11 10 -26 10
-33 -1 -7 -7 1 -14 17 -9 21 -10 34 -3 43 8 11 14 8 25 -13 7 -15 11 -29 9
-32z m633 37 c0 -11 -6 -20 -13 -20 -7 0 -18 9 -25 20 -11 18 -10 20 13 20 18
0 25 -5 25 -20z m789 4 c2 -2 -18 -4 -45 -3 -36 0 -44 3 -29 9 18 7 63 3 74
-6z m-1229 -20 c0 -14 -21 -19 -33 -7 -9 9 13 34 24 27 5 -3 9 -12 9 -20z
m730 11 c0 -17 -42 -19 -75 -4 -14 6 -7 8 25 4 32 -4 39 -2 25 4 -19 9 -19 10
3 10 13 1 22 -5 22 -14z m595 5 c25 -11 -1 -11 -35 0 -20 6 -21 8 -5 8 11 0
29 -3 40 -8z m-941 -17 c7 -16 -8 -33 -30 -33 -7 0 -14 9 -17 19 -4 17 -2 19
22 10 24 -9 25 -8 7 6 -16 12 -17 15 -4 15 9 0 19 -8 22 -17z m-74 -12 c0 -5
3 -16 6 -24 8 -22 -36 -30 -52 -9 -10 13 -8 18 10 28 27 15 36 16 36 5z m319
-6 c44 -22 48 -45 8 -45 -25 0 -36 7 -49 30 -15 26 -15 30 -2 30 8 0 28 -7 43
-15z m510 10 c-11 -10 -167 -35 -214 -34 -47 2 -46 2 20 10 39 4 82 12 95 18
25 10 107 15 99 6z m121 -11 c0 -2 -24 -3 -52 -3 -48 2 -49 2 -18 8 33 6 70 3
70 -5z m-1502 -18 c8 -19 8 -27 -2 -35 -10 -8 -16 -5 -26 13 -12 23 -8 46 9
46 4 0 13 -11 19 -24z m191 7 c0 -11 -3 -13 -6 -5 -2 6 -10 9 -15 6 -7 -4 -8
-2 -4 4 11 18 26 14 25 -5z m154 -40 c-24 -19 -40 -16 -57 9 -12 16 -13 24 -4
29 7 4 16 5 20 3 4 -3 8 -1 8 5 0 5 11 0 25 -12 22 -20 23 -23 8 -34z m-2136
25 c-3 -8 -6 -5 -6 6 -1 11 2 17 5 13 3 -3 4 -12 1 -19z m2597 7 c9 -24 -3
-43 -30 -48 -37 -7 -62 47 -26 56 34 9 50 7 56 -8z m184 -13 c2 -8 -7 -12 -26
-12 -20 0 -31 6 -34 18 -5 16 -1 18 25 13 17 -4 32 -12 35 -19z m-498 -25 c0
-5 -7 -7 -15 -3 -8 3 -15 0 -16 -7 0 -7 -5 -2 -12 11 -8 19 -8 25 4 33 14 9
39 -13 39 -34z m570 33 c-20 -5 -39 -5 -44 1 -6 5 7 9 35 8 l44 -1 -35 -8z
m-1111 -27 c7 -13 7 -24 2 -28 -13 -7 -34 32 -25 46 7 12 7 12 23 -18z m214 6
c5 -8 4 -25 -3 -44 l-11 -29 -21 32 c-16 26 -18 35 -8 47 15 18 29 16 43 -6z
m77 11 c-8 -5 -12 -10 -7 -11 4 -1 10 -2 15 -3 4 -1 13 -5 20 -9 16 -11 4 -30
-14 -23 -8 3 -13 2 -13 -2 4 -27 -2 -31 -26 -20 -23 10 -36 48 -16 48 5 0 8
-7 7 -16 0 -9 6 -19 14 -21 10 -3 11 -2 3 4 -7 5 -10 17 -8 28 2 11 4 23 4 28
1 4 9 7 19 7 14 0 15 -2 2 -10z m1185 -1 c5 -7 -8 -8 -41 -3 -64 9 -68 14 -11
14 25 0 49 -5 52 -11z m62 5 c-3 -3 -12 -4 -19 -1 -8 3 -5 6 6 6 11 1 17 -2
13 -5z m-779 -32 c4 -24 -16 -28 -78 -15 l-33 6 44 18 c52 21 63 20 67 -9z
m606 13 c19 -15 19 -15 -1 -15 -12 0 -29 3 -38 6 -13 5 -14 8 -3 15 17 11 20
11 42 -6z m-894 -10 c0 -8 0 -18 1 -22 0 -4 -4 -9 -9 -11 -11 -3 -23 34 -14
42 10 11 22 6 22 -9z m699 -4 c9 -6 -4 -8 -35 -5 -44 3 -45 2 -14 -5 l35 -8
-37 -2 c-36 -1 -47 7 -31 22 9 10 66 8 82 -2z m-1199 -42 c0 -4 -4 -10 -9 -13
-14 -9 -34 22 -26 41 6 17 7 17 21 -1 8 -11 14 -23 14 -27z m200 -21 c0 -26
-37 -23 -60 4 -17 22 -17 23 4 34 25 13 56 -7 56 -38z m243 15 c-24 -18 -33
-16 -33 7 0 11 4 20 10 20 5 0 7 -7 4 -15 -5 -11 -2 -13 9 -9 9 3 14 13 10 22
-4 15 -3 15 6 2 8 -11 7 -18 -6 -27z m542 27 c-28 -12 -73 -12 -80 0 -4 6 14
10 47 9 39 0 48 -3 33 -9z m93 3 c-10 -2 -28 -2 -40 0 -13 2 -5 4 17 4 22 1
32 -1 23 -4z m-408 -33 c0 -10 2 -25 5 -32 4 -10 -11 -20 -50 -33 l-55 -19
-23 23 c-12 13 -17 21 -12 18 6 -3 16 2 24 10 12 13 11 15 -10 9 -13 -3 3 7
36 23 64 30 85 30 85 1z m717 22 c7 -4 -19 -7 -58 -6 -39 1 -73 5 -76 8 -9 9
120 7 134 -2z m-507 -8 c0 -3 -5 -14 -10 -25 -14 -26 -70 -27 -70 -1 0 10 3
22 7 25 8 8 73 9 73 1z m-923 -40 c-9 -10 -38 16 -31 28 4 6 13 4 22 -6 9 -8
13 -19 9 -22z m427 21 c4 -13 -20 -35 -38 -35 -11 0 -6 26 6 38 16 16 25 15
32 -3z m385 0 c2 -2 1 -11 -3 -20 -9 -25 -57 -15 -68 14 -8 22 -7 23 29 16 21
-4 40 -8 42 -10z m383 -3 c8 -8 5 -10 -13 -6 -20 5 -21 4 -9 -6 12 -10 10 -11
-10 -6 -14 3 -37 6 -52 6 -42 0 -34 18 10 22 51 5 61 3 74 -10z m114 2 c36 -9
63 -19 60 -22 -8 -7 -135 19 -142 29 -7 13 8 11 82 -7z m-256 -9 c6 -11 -75
-26 -102 -19 -9 3 -15 10 -12 17 5 15 107 16 114 2z m-886 -17 c7 -12 5 -21
-9 -34 -17 -17 -18 -17 -37 6 -19 23 -19 25 -2 37 21 15 34 13 48 -9z m177 12
c28 -16 23 -28 -18 -45 -35 -15 -39 -15 -51 2 -11 15 -10 20 9 36 25 20 33 21
60 7z m-383 -42 c-8 -4 -18 -1 -25 9 -18 24 -4 37 18 17 15 -13 17 -19 7 -26z
m610 -29 c-39 -20 -55 -19 -66 6 -11 23 -9 27 11 34 17 7 28 4 45 -12 16 -15
19 -23 10 -28z m729 45 c-3 -3 -12 -4 -19 -1 -8 3 -5 6 6 6 11 1 17 -2 13 -5z
m-1202 -47 c-9 -5 -23 -6 -31 -3 -8 3 -14 1 -14 -4 0 -5 8 -11 18 -13 16 -4
16 -5 0 -6 -10 0 -22 8 -28 18 -8 16 -6 23 12 35 20 14 24 14 40 -1 17 -15 17
-18 3 -26z m165 2 c0 -15 -59 -21 -74 -7 -12 11 -10 15 12 30 24 16 28 16 44
1 10 -9 18 -20 18 -24z m685 27 c47 -20 49 -50 3 -41 -39 9 -34 5 -42 33 -9
26 -6 27 39 8z m215 3 c0 -7 -16 -8 -47 -3 -65 9 -67 14 -5 14 30 0 52 -4 52
-11z m95 1 l20 -9 -20 1 c-11 0 -31 4 -45 8 l-25 8 25 0 c14 0 34 -3 45 -8z
m-1336 -14 c9 -10 9 -16 1 -21 -13 -8 -42 14 -34 26 8 13 20 11 33 -5z m889 2
c17 -17 15 -28 -7 -28 -25 0 -47 26 -29 33 20 8 23 8 36 -5z m70 -15 c4 -31
-12 -29 -33 3 -16 25 -16 26 7 22 15 -2 24 -11 26 -25z m163 17 c28 -15 23
-30 -8 -29 l-28 1 25 7 c22 6 23 8 7 14 -11 4 -23 5 -27 2 -5 -3 -11 -1 -15 5
-8 13 21 13 46 0z m-565 -43 c-2 -7 -5 -4 -5 6 -1 9 -9 17 -18 17 -16 0 -16
-2 -3 -11 12 -8 11 -9 -5 -5 -11 3 -27 1 -35 -4 -11 -7 -6 -10 20 -11 19 -1
27 -3 17 -6 -10 -3 -31 -2 -45 2 -27 7 -26 7 18 30 38 19 46 21 53 9 5 -8 6
-20 3 -27z m274 14 c0 -5 -45 -7 -67 -2 -5 1 3 8 17 16 23 12 50 5 50 -14z
m397 -4 c4 -7 0 -8 -11 -4 -10 4 -24 7 -32 7 -8 0 -14 4 -14 9 0 11 49 1 57
-12z m-1267 -31 c-15 -15 -34 9 -26 31 7 17 8 17 22 -1 9 -13 11 -23 4 -30z
m140 10 c0 -8 -15 -16 -35 -18 l-35 -4 27 22 c29 23 43 23 43 0z m637 12 c-2
-7 -16 -12 -31 -11 -14 1 -24 -2 -21 -8 4 -5 1 -9 -5 -9 -21 0 -4 24 21 31 37
11 41 10 36 -3z m-497 -7 c-8 -6 -18 -7 -22 -4 -5 2 -17 -1 -26 -9 -15 -12
-16 -11 -3 5 7 9 25 17 40 17 20 0 22 -3 11 -9z m646 -27 c14 -21 15 -27 4
-34 -16 -10 -41 -2 -57 18 -21 26 -15 34 29 41 4 0 15 -11 24 -25z m88 -11 c4
-9 -4 -13 -24 -13 -17 0 -30 4 -30 9 0 5 -3 16 -6 25 -5 13 -1 13 25 3 17 -6
33 -17 35 -24z m101 10 c18 -12 18 -13 -10 -13 -23 0 -27 3 -15 10 11 8 6 9
-19 8 -20 -2 -36 2 -38 9 -6 16 53 6 82 -14z m-1155 -8 c0 -8 -4 -16 -9 -19
-5 -4 -7 4 -4 16 4 19 3 20 -6 8 -6 -8 -11 -10 -11 -4 0 6 3 14 6 17 10 9 24
-2 24 -18z m325 15 c-3 -5 -16 -10 -28 -9 -20 1 -20 2 3 9 14 4 26 8 28 9 2 1
0 -3 -3 -9z m400 -1 c11 -17 0 -20 -21 -4 -17 13 -17 14 -2 15 9 0 20 -5 23
-11z m130 1 c-11 -5 -14 -9 -7 -9 6 -1 12 -6 12 -12 0 -5 -5 -7 -12 -3 -7 4
-8 3 -4 -4 12 -19 36 -14 30 6 -5 14 -4 14 4 2 13 -18 6 -30 -18 -30 -25 0
-43 33 -28 48 7 7 19 12 28 11 10 0 9 -3 -5 -9z m358 3 c-7 -2 -19 -2 -25 0
-7 3 -2 5 12 5 14 0 19 -2 13 -5z m-698 -13 l-30 -7 29 -8 c20 -5 31 -4 37 6
7 11 9 10 9 -5 0 -16 -6 -18 -41 -13 -22 3 -44 8 -47 12 -10 10 20 25 48 24
23 -1 22 -2 -5 -9z m-260 -9 c3 -6 -3 -14 -13 -20 -14 -7 -21 -5 -30 10 -11
17 -9 19 12 19 14 0 27 -4 31 -9z m381 -13 c9 -15 -10 -30 -29 -22 -25 9 -22
43 3 37 11 -3 23 -10 26 -15z m67 -4 c21 -14 36 -28 34 -30 -11 -11 -57 10
-72 32 -20 31 -9 30 38 -2z m104 -3 c10 -16 9 -22 -11 -35 -22 -14 -24 -14
-30 2 -3 9 -9 24 -12 32 -5 13 -4 13 5 0 9 -13 11 -13 11 3 0 23 22 22 37 -2z
m-847 -25 c-13 -13 -35 7 -25 24 5 8 11 8 21 -1 10 -8 12 -15 4 -23z m143 -1
c17 -35 17 -36 -7 -47 -51 -23 -83 18 -46 58 13 13 26 24 30 24 3 0 14 -16 23
-35z m87 20 c0 -8 -10 -20 -22 -26 -18 -10 -24 -8 -35 7 -20 28 -16 34 22 34
24 0 35 -5 35 -15z m305 -45 c26 -76 27 -80 12 -80 -12 0 -47 37 -101 108 -8
11 -1 13 34 10 39 -3 44 -6 55 -38z m535 24 c0 -2 -7 -4 -15 -4 -8 0 -15 4
-15 10 0 5 7 7 15 4 8 -4 15 -8 15 -10z m-637 -37 c-2 -4 1 -6 9 -5 7 2 13 -5
13 -14 0 -9 4 -20 9 -25 5 -5 6 -2 1 7 -5 8 4 4 18 -9 15 -13 24 -28 21 -32
-11 -19 -41 -6 -92 38 l-52 46 27 17 c25 15 29 15 40 1 6 -9 9 -19 6 -24z
m-473 18 c0 -8 -2 -15 -4 -15 -2 0 -6 7 -10 15 -3 8 -1 15 4 15 6 0 10 -7 10
-15z m674 -16 c11 -58 8 -67 -19 -61 -18 3 -30 16 -40 39 -21 49 -19 53 19 53
30 0 34 -4 40 -31z m306 11 c0 -11 -17 -22 -56 -34 -31 -10 -58 -15 -61 -13
-2 3 9 8 26 12 17 4 29 11 25 16 -3 5 -14 5 -27 -2 -17 -8 -16 -5 5 13 33 28
88 33 88 8z m70 10 c-20 -13 -40 -13 -40 0 0 6 12 10 28 10 21 0 24 -2 12 -10z
m-251 -14 c19 -7 36 -17 38 -22 3 -8 -83 -34 -114 -34 -13 0 -26 46 -18 60 8
13 52 11 94 -4z m-834 -26 c-6 -9 -9 -9 -16 1 -10 17 0 34 13 21 6 -6 7 -16 3
-22z m145 -17 c0 -18 -39 -26 -56 -12 -13 10 -12 15 7 35 21 22 23 22 35 6 7
-9 14 -22 14 -29z m290 -18 c-5 -6 -13 -21 -18 -34 l-8 -22 -19 22 c-12 14
-14 19 -5 14 9 -5 8 0 -4 13 -13 15 -15 22 -6 22 7 0 11 2 8 5 -3 3 -13 3 -22
-1 -15 -6 -15 -7 1 -20 22 -16 9 -18 -20 -3 -20 11 -18 13 24 35 l44 23 17
-22 c10 -13 13 -26 8 -32z m-467 2 c-3 -5 -9 -3 -14 4 -4 7 -5 17 -2 22 3 5 9
3 14 -4 4 -7 5 -17 2 -22z m104 -13 c2 -6 -7 -16 -21 -22 -19 -9 -25 -8 -30 3
-3 8 3 19 12 24 19 12 34 9 39 -5z m-137 -2 c0 -13 -12 -22 -22 -16 -10 6 -1
24 13 24 5 0 9 -4 9 -8z m385 -9 c0 -6 4 -15 9 -20 5 -5 6 -3 2 5 -10 17 5 15
32 -6 l24 -18 -26 -17 c-38 -25 -58 -21 -90 21 -23 29 -25 33 -6 17 l23 -20
-11 22 c-9 16 -9 23 1 27 19 8 42 2 42 -11z m179 -24 c-6 -10 -54 -12 -54 -3
0 3 5 14 11 25 10 20 12 20 30 3 10 -9 16 -21 13 -25z m291 21 c-3 -5 -16 -10
-28 -10 -18 0 -19 2 -7 10 20 13 43 13 35 0z m-895 -20 c0 -5 -2 -10 -4 -10
-3 0 -8 5 -11 10 -3 6 -1 10 4 10 6 0 11 -4 11 -10z m114 -6 c5 -13 2 -15 -13
-11 -11 3 -21 1 -23 -3 -2 -4 -14 -11 -28 -15 -21 -6 -19 -3 10 19 42 30 46
31 54 10z m246 -24 c0 -4 -14 -10 -30 -12 -41 -6 -59 21 -27 39 18 9 25 8 40
-4 9 -9 17 -19 17 -23z m464 31 c10 -15 -30 -19 -55 -5 -23 13 -23 13 13 14
20 0 39 -4 42 -9z m-89 -21 c19 -7 19 -8 2 -15 -11 -5 -32 -1 -50 8 l-32 16
30 0 c17 0 39 -4 50 -9z m-467 -35 c-1 -1 -13 -6 -25 -9 -19 -6 -23 -3 -23 13
0 23 31 33 43 13 5 -7 7 -15 5 -17z m386 19 c24 -9 19 -24 -6 -24 -19 0 -20 2
-8 11 11 8 7 9 -17 4 -21 -4 -33 -3 -33 4 0 12 39 15 64 5z m-89 -24 l50 -20
-51 5 c-28 2 -59 8 -69 11 -18 7 -18 8 1 15 10 4 19 8 19 8 0 1 23 -8 50 -19z
m-368 4 c-3 -3 -12 -4 -19 -1 -8 3 -5 6 6 6 11 1 17 -2 13 -5z m-60 -20 c-3
-3 -12 -4 -19 -1 -8 3 -5 6 6 6 11 1 17 -2 13 -5z m277 -19 c27 -14 42 -25 32
-25 -9 0 -27 7 -40 15 -13 9 -43 19 -67 24 -43 9 -43 9 -9 10 19 0 57 -10 84
-24z m71 11 c36 -10 42 -14 24 -15 -15 -1 -42 6 -60 14 -43 18 -28 19 36 1z
m-178 -31 c38 -33 10 -33 -48 0 l-44 25 32 0 c20 0 43 -9 60 -25z m-82 -9 c37
-18 44 -25 27 -25 -12 -1 -39 6 -59 14 -19 8 -45 15 -57 16 -20 0 -21 1 -1 9
30 13 36 12 90 -14z m160 4 c18 -8 17 -9 -7 -9 -15 -1 -30 4 -33 9 -7 12 12
12 40 0z m-8 -166 c-3 -3 -12 -4 -19 -1 -8 3 -5 6 6 6 11 1 17 -2 13 -5z m60
-10 c-3 -3 -12 -4 -19 -1 -8 3 -5 6 6 6 11 1 17 -2 13 -5z m53 -4 c0 -5 -7
-10 -15 -10 -8 0 -15 5 -15 10 0 6 7 10 15 10 8 0 15 -4 15 -10z m50 -10 c0
-5 -7 -7 -15 -4 -8 4 -15 8 -15 10 0 2 7 4 15 4 8 0 15 -4 15 -10z m45 0 c3
-5 1 -10 -4 -10 -6 0 -11 5 -11 10 0 6 2 10 4 10 3 0 8 -4 11 -10z m55 -10 c0
-5 -4 -10 -10 -10 -5 0 -10 5 -10 10 0 6 5 10 10 10 6 0 10 -4 10 -10z m-345
-18 c-3 -3 -11 0 -18 7 -9 10 -8 11 6 5 10 -3 15 -9 12 -12z m395 8 c0 -5 -7
-10 -16 -10 -8 0 -12 5 -9 10 3 6 10 10 16 10 5 0 9 -4 9 -10z m50 -5 c0 -8
-4 -15 -8 -15 -5 0 -9 7 -9 15 0 8 4 15 9 15 4 0 8 -7 8 -15z m63 -11 c-3 -8
-12 -13 -20 -10 -8 3 -17 6 -19 6 -3 0 -2 5 1 10 11 17 45 12 38 -6z m-423 -9
c0 -16 -9 -19 -34 -9 -25 9 -19 24 9 24 16 0 25 -6 25 -15z m480 0 c0 -8 -5
-15 -11 -15 -5 0 -7 5 -3 12 5 8 2 9 -10 5 -10 -4 -15 -3 -11 3 10 15 35 12
35 -5z m-417 -2 c-13 -2 -23 -9 -23 -14 0 -6 9 -7 21 -4 15 5 19 4 15 -4 -4
-6 -3 -11 3 -11 5 0 12 8 14 18 4 15 5 15 6 0 1 -24 -13 -30 -43 -18 -36 13
-34 40 2 39 23 -2 24 -2 5 -6z m471 -8 c-7 -17 -20 -20 -28 -6 -7 10 3 21 20
21 8 0 11 -6 8 -15z m60 -10 c-4 -8 -10 -15 -16 -15 -5 0 -6 5 -2 12 5 8 2 9
-10 5 -10 -4 -15 -3 -11 3 10 17 45 12 39 -5z m-389 -5 c8 -13 -15 -13 -35 0
-12 8 -11 10 7 10 12 0 25 -4 28 -10z m455 1 c0 -6 -4 -12 -9 -15 -13 -8 -42
4 -35 15 7 12 44 12 44 0z m-500 -21 c19 -15 21 -20 8 -20 -27 0 -48 11 -48
26 0 19 10 17 40 -6z m129 -9 c0 -11 -2 -12 -6 -3 -3 9 -9 10 -17 3 -14 -12
-41 2 -33 17 10 15 57 2 56 -17z m431 20 c0 -14 -18 -23 -30 -16 -6 4 -8 11
-5 16 8 12 35 12 35 0z m70 -16 c-13 -16 -50 -21 -50 -7 0 15 13 22 38 22 21
0 22 -2 12 -15z m-429 -5 c5 0 9 -7 9 -16 0 -23 -44 -14 -48 10 -3 14 0 17 13
12 9 -3 21 -6 26 -6z m492 3 c12 -11 -13 -31 -34 -26 -15 4 -17 8 -8 19 12 15
31 18 42 7z m-903 -13 c0 -5 -2 -10 -4 -10 -3 0 -8 5 -11 10 -3 6 -1 10 4 10
6 0 11 -4 11 -10z m944 -5 c-4 -8 -1 -15 5 -15 6 0 11 5 11 10 0 6 5 10 12 10
8 0 6 -6 -5 -17 -12 -13 -20 -14 -28 -6 -6 6 -8 16 -5 22 10 16 16 13 10 -4z
m-654 -15 c0 -5 -9 -6 -20 -3 -11 3 -17 9 -15 14 7 10 35 1 35 -11z m190 9 c0
-5 -5 -7 -12 -3 -7 4 -8 3 -4 -4 10 -17 24 -15 29 6 4 13 5 11 6 -5 1 -24 -6
-27 -33 -17 -20 8 -21 34 -1 34 8 0 15 -5 15 -11z m-414 -7 c6 -4 13 -15 17
-25 6 -15 4 -16 -14 -7 -11 6 -16 16 -13 22 5 7 1 9 -9 5 -10 -3 -17 -2 -17 3
0 12 20 13 36 2z m510 -3 c8 -13 -13 -29 -38 -29 -11 0 -15 6 -11 20 6 21 37
27 49 9z m464 1 c0 -5 -10 -10 -22 -9 -22 0 -22 1 -3 9 11 5 21 9 23 9 1 1 2
-3 2 -9z m-674 -15 c20 -15 13 -18 -23 -9 -13 4 -23 10 -23 15 0 14 24 11 46
-6z m254 5 c0 -5 -2 -10 -4 -10 -3 0 -8 5 -11 10 -3 6 -1 10 4 10 6 0 11 -4
11 -10z m-439 -49 c8 -14 15 -29 17 -33 5 -10 -57 9 -74 23 -8 6 -14 22 -14
34 0 22 2 22 29 12 16 -6 35 -22 42 -36z m499 39 c0 -5 -4 -10 -9 -10 -6 0
-13 5 -16 10 -3 6 1 10 9 10 9 0 16 -4 16 -10z m-212 -29 c5 -16 -35 -6 -57
14 -11 11 -7 12 20 6 18 -3 34 -12 37 -20z m272 14 c0 -8 -5 -15 -11 -15 -5 0
-7 5 -3 12 5 8 2 9 -10 5 -10 -4 -15 -3 -11 3 10 15 35 12 35 -5z m353 8 c-7
-2 -21 -2 -30 0 -10 3 -4 5 12 5 17 0 24 -2 18 -5z m101 -8 c-21 -16 -64 -20
-64 -6 0 6 15 12 33 14 17 2 36 5 41 5 6 1 1 -5 -10 -13z m-364 -5 c29 0 58
-16 47 -26 -8 -8 -98 15 -112 29 -7 6 -2 8 15 3 14 -3 36 -6 50 -6z m-540 -43
c0 -4 -9 -3 -19 3 -24 12 -41 13 -41 1 0 -5 10 -11 23 -13 22 -3 22 -3 1 -9
-17 -5 -25 0 -37 26 l-15 32 44 -16 c24 -9 44 -19 44 -24z m364 35 c2 -4 -12
-7 -32 -5 l-37 2 33 -8 c42 -11 57 -25 17 -16 -48 11 -55 14 -55 25 0 12 66
14 74 2z m619 -9 c-20 -10 -38 -13 -50 -8 -14 7 -10 10 22 15 60 11 63 10 28
-7z m-1188 -23 c9 -16 13 -30 11 -30 -3 0 -12 14 -21 30 -9 17 -13 30 -11 30
3 0 12 -13 21 -30z m473 14 c32 -22 27 -35 -9 -22 -23 8 -28 13 -17 20 9 7 4
8 -14 4 -16 -4 -28 -2 -28 4 0 15 43 12 68 -6z m-513 -4 c3 -5 2 -10 -4 -10
-5 0 -13 5 -16 10 -3 6 -2 10 4 10 5 0 13 -4 16 -10z m675 0 c4 0 10 -8 13
-19 4 -16 1 -18 -22 -12 -14 4 -28 16 -30 26 -2 13 1 16 14 11 9 -3 20 -6 25
-6z m305 -12 c13 -5 3 -6 -29 -2 -27 3 -58 10 -70 15 -14 6 -5 7 29 2 28 -3
59 -10 70 -15z m-207 -3 c15 -4 22 -14 22 -30 0 -23 -2 -23 -32 -13 -35 12
-48 24 -48 46 0 8 7 11 18 8 9 -2 27 -7 40 -11z m-456 -14 c4 -3 10 -26 14
-50 7 -41 6 -43 -13 -32 -11 5 -27 31 -35 56 -15 45 -15 45 6 39 11 -3 24 -9
28 -13z m719 4 c13 8 79 -5 79 -16 0 -5 -12 -9 -26 -9 -14 0 -23 4 -19 9 3 6
-7 9 -21 8 -15 -1 -28 4 -30 11 -1 7 0 8 3 2 2 -5 9 -8 14 -5z m-930 -21 c13
-14 17 -23 9 -19 -13 5 -46 45 -37 45 2 0 14 -11 28 -26z m825 9 c52 -14 66
-22 71 -41 8 -33 0 -36 -44 -14 -21 11 -51 25 -66 31 -17 7 -25 16 -21 23 4 6
3 8 -2 5 -6 -3 -16 -2 -24 4 -24 15 13 11 86 -8z m431 11 c-3 -3 -12 -4 -19
-1 -8 3 -5 6 6 6 11 1 17 -2 13 -5z m-757 -14 c0 -13 -20 -13 -40 0 -12 8 -9
10 13 10 15 0 27 -4 27 -10z m817 4 c-3 -3 -12 -4 -19 -1 -8 3 -5 6 6 6 11 1
17 -2 13 -5z m-1025 -21 c13 -16 13 -22 2 -50 -16 -39 -29 -42 -38 -10 -17 65
2 98 36 60z m498 -30 c19 -8 45 -20 57 -26 47 -21 11 -19 -49 3 -73 27 -88 37
-88 57 0 13 3 13 23 -1 12 -9 38 -24 57 -33z m321 31 c21 -4 39 -11 39 -16 0
-6 -6 -8 -14 -5 -7 3 -34 9 -60 12 -25 4 -43 12 -40 17 3 5 13 7 21 4 8 -3 32
-9 54 -12z m-1056 -2 c6 -4 17 -16 25 -26 14 -18 14 -19 -6 -8 -24 13 -51 42
-38 42 5 0 14 -4 19 -8z m102 -7 c9 -25 -2 -27 -28 -6 l-24 20 23 1 c12 0 25
-7 29 -15z m407 6 c11 -4 15 -10 10 -13 -10 -6 -54 8 -54 17 0 7 21 5 44 -4z
m-200 -11 c14 -5 26 -16 26 -25 0 -22 -13 -19 -40 10 -26 28 -24 30 14 15z
m603 -18 c16 -27 2 -51 -24 -41 -30 11 -34 70 -5 62 10 -2 23 -12 29 -21z
m556 21 c-7 -2 -19 -2 -25 0 -7 3 -2 5 12 5 14 0 19 -2 13 -5z m-893 -13 c0
-5 -9 -10 -21 -10 -11 0 -17 5 -14 10 3 6 13 10 21 10 8 0 14 -4 14 -10z m438
-7 c23 -4 32 -11 32 -24 0 -25 -11 -24 -70 6 -55 28 -65 41 -22 30 15 -3 42
-9 60 -12z m-602 -9 c24 -6 31 -18 15 -28 -4 -3 -23 6 -42 21 -19 14 -26 23
-16 19 11 -3 30 -9 43 -12z m199 6 c-3 -6 1 -7 9 -4 10 4 16 1 16 -9 0 -10 -7
-13 -20 -10 -21 5 -28 33 -9 33 5 0 7 -4 4 -10z m572 4 c-3 -3 -12 -4 -19 -1
-8 3 -5 6 6 6 11 1 17 -2 13 -5z m-1077 -36 c0 -10 -36 7 -45 22 -4 6 5 5 19
-2 14 -6 26 -15 26 -20z m195 3 c22 -17 23 -20 9 -40 -29 -41 -69 -18 -52 30
12 34 13 34 43 10z m385 -3 c0 -5 5 -6 10 -3 6 3 10 1 10 -5 0 -7 -7 -9 -16
-6 -9 3 -20 6 -25 6 -5 0 -9 7 -9 15 0 9 6 12 15 9 8 -4 15 -10 15 -16z m425
1 c9 -26 2 -33 -26 -24 -16 6 -18 9 -8 16 8 5 17 3 22 -4 6 -8 7 -7 4 3 -2 8
-12 14 -21 14 -9 -1 -16 2 -16 7 0 18 39 8 45 -12z m505 11 c12 -7 8 -10 -15
-10 -16 0 -37 5 -45 10 -12 7 -8 10 15 10 17 0 37 -5 45 -10z m-1230 -44 c0
-6 -5 -4 -10 4 -5 8 -10 11 -10 6 0 -6 -5 -5 -11 1 -6 6 -8 17 -4 24 6 9 11 7
22 -6 7 -11 13 -24 13 -29z m118 13 c-11 -7 -11 -9 1 -9 8 0 12 -2 9 -5 -3 -3
-13 -2 -22 1 -14 5 -15 9 -4 16 9 7 4 8 -14 4 -21 -5 -26 -3 -22 8 4 12 12 12
36 4 22 -8 26 -13 16 -19z m678 6 c9 -13 10 -25 4 -35 -8 -13 -11 -13 -24 0
-7 8 -17 26 -21 38 -6 19 -4 23 10 20 10 -1 24 -12 31 -23z m136 2 c4 -1 0
-11 -8 -21 -14 -19 -15 -19 -56 4 -24 12 -47 26 -51 30 -7 6 91 -5 115 -13z
m375 17 c-3 -3 -12 -4 -19 -1 -8 3 -5 6 6 6 11 1 17 -2 13 -5z m-689 -29 c23
-10 42 -21 42 -25 0 -11 -83 9 -95 22 -7 8 -4 9 10 4 l20 -6 -20 16 c-11 9
-15 14 -10 12 6 -2 29 -13 53 -23z m-838 5 c8 -5 12 -11 9 -14 -3 -3 -14 1
-25 9 -21 16 -8 20 16 5z m610 -16 c0 -11 -5 -11 -25 -2 -13 6 -22 14 -20 19
8 12 45 -2 45 -17z m699 -20 c29 -27 32 -34 19 -39 -16 -6 -118 60 -118 77 0
18 68 -7 99 -38z m-847 7 c42 -14 45 -18 33 -34 -12 -17 -15 -17 -69 3 -42 16
-56 26 -56 41 0 22 -2 22 92 -10z m280 13 c32 -7 60 -34 35 -34 -18 0 -107 39
-107 47 0 3 10 2 23 -1 12 -4 34 -9 49 -12z m-472 -48 c0 -20 0 -20 -15 0 -8
10 -14 28 -14 39 0 20 0 20 14 1 8 -11 15 -29 15 -40z m957 19 c1 0 -4 -8 -12
-18 -12 -16 -14 -16 -36 2 -20 16 -22 21 -10 35 13 15 15 15 35 -1 12 -10 22
-18 23 -18z m-1147 -1 c0 -2 -9 0 -20 6 -11 6 -20 13 -20 16 0 2 9 0 20 -6 11
-6 20 -13 20 -16z m158 -34 c13 -16 18 -30 12 -30 -6 0 -13 7 -16 15 -4 8 -10
12 -15 10 -5 -3 -22 1 -39 10 -26 13 -29 19 -20 35 10 18 13 19 33 5 13 -8 33
-28 45 -45z m72 39 c0 -14 -17 -10 -23 5 -4 10 -1 13 9 9 7 -3 14 -9 14 -14z
m355 11 c3 -5 -3 -10 -14 -10 -12 0 -21 5 -21 10 0 6 6 10 14 10 8 0 18 -4 21
-10z m433 -24 c2 -9 -3 -16 -10 -16 -17 0 -38 20 -38 37 0 18 44 0 48 -21z
m257 16 c-3 -3 -11 0 -18 7 -9 10 -8 11 6 5 10 -3 15 -9 12 -12z m-374 -11
c35 -17 35 -41 -1 -31 -39 11 -70 29 -70 41 0 12 36 7 71 -10z m-586 -29 c-6
-7 -65 19 -65 28 0 4 16 0 35 -8 19 -9 32 -18 30 -20z m1000 20 c-3 -3 -11 0
-18 7 -9 10 -8 11 6 5 10 -3 15 -9 12 -12z m-665 -2 c13 -9 13 -10 0 -10 -8 0
-22 5 -30 10 -13 9 -13 10 0 10 8 0 22 -5 30 -10z m114 4 c9 -3 16 -10 16 -16
0 -14 -43 -5 -48 10 -4 13 7 15 32 6z m764 -1 c-15 -2 -42 -2 -60 0 -18 2 -6
4 27 4 33 0 48 -2 33 -4z m90 0 c-10 -2 -26 -2 -35 0 -10 3 -2 5 17 5 19 0 27
-2 18 -5z m-1133 -61 c-2 -3 -18 1 -34 8 -26 10 -28 14 -18 31 12 19 13 19 34
-8 12 -15 20 -29 18 -31z m25 37 c0 -4 6 -6 14 -3 8 3 16 1 19 -3 11 -18 -32
-11 -49 8 -16 18 -16 19 -1 13 9 -3 17 -10 17 -15z m561 11 c10 -6 19 -20 19
-30 0 -23 -1 -24 -33 -9 -17 8 -23 17 -20 30 6 22 8 22 34 9z m-819 -13 c23
-18 9 -35 -22 -26 -25 7 -25 7 -2 8 13 1 20 5 17 11 -4 6 -11 8 -16 5 -5 -4
-9 -1 -9 4 0 14 11 13 32 -2z m459 -5 c-7 -2 -18 1 -23 6 -8 8 -4 9 13 5 13
-4 18 -8 10 -11z m134 5 c10 -8 14 -17 8 -20 -15 -10 -53 4 -53 19 0 18 21 18
45 1z m136 -3 c12 -14 11 -16 -5 -13 -11 2 -21 10 -24 17 -5 17 13 15 29 -4z
m223 -3 c28 -31 10 -45 -25 -20 -28 20 -31 39 -5 39 7 0 21 -9 30 -19z m120
-10 c4 -5 3 -16 0 -25 -6 -14 -9 -14 -34 1 -23 13 -26 19 -17 34 11 18 38 12
51 -10z m60 4 c9 -14 13 -25 8 -25 -16 0 -52 32 -47 41 10 15 22 10 39 -16z
m-994 -17 c0 -12 -12 -9 -32 6 -26 19 -22 27 7 14 14 -6 25 -15 25 -20z m1283
25 c-7 -2 -21 -2 -30 0 -10 3 -4 5 12 5 17 0 24 -2 18 -5z m-1342 -36 c-1 -4
-1 -12 -1 -17 0 -7 -6 -7 -20 0 -28 15 -27 42 1 32 11 -5 20 -11 20 -15z m278
12 c22 -8 29 -15 22 -22 -13 -13 -61 0 -61 18 0 18 -1 18 39 4z m156 1 c3 -6
-1 -7 -9 -4 -18 7 -21 14 -7 14 6 0 13 -4 16 -10z m168 -21 c-6 -22 -5 -22
-37 -8 -32 15 -23 37 13 31 22 -3 28 -8 24 -23z m247 -16 c0 -17 -19 -16 -50
3 -23 14 -14 13 28 -3 15 -6 15 -5 3 10 -7 9 -20 17 -27 17 -8 0 -14 5 -14 11
0 5 13 2 30 -8 17 -9 30 -23 30 -30z m-100 -5 c0 -10 -56 18 -65 32 -4 6 10 3
29 -7 20 -9 36 -20 36 -25z m577 36 c-3 -3 -12 -4 -19 -1 -8 3 -5 6 6 6 11 1
17 -2 13 -5z m-1219 -16 c14 -14 16 -28 2 -28 -5 0 -14 9 -20 20 -12 22 -1 27
18 8z m382 2 c8 -5 11 -10 5 -10 -5 0 -17 5 -25 10 -8 5 -10 10 -5 10 6 0 17
-5 25 -10z m188 -29 c4 -24 -1 -25 -31 -10 -29 15 -28 14 -21 32 8 22 48 6 52
-22z m312 -22 c0 -13 -6 -11 -51 12 -33 16 -38 23 -29 34 10 12 17 10 46 -11
19 -15 34 -30 34 -35z m200 6 c7 -8 11 -18 8 -20 -2 -3 -22 14 -44 37 -35 37
-36 39 -8 20 17 -12 37 -28 44 -37z m234 34 c5 -4 -8 -3 -30 2 -21 6 -41 13
-44 16 -9 9 65 -9 74 -18z m-1459 -15 c26 -19 19 -18 -40 6 -42 17 -44 19 -15
14 19 -4 44 -13 55 -20z m261 15 c4 -8 -1 -9 -17 -4 -18 5 -21 4 -9 -4 8 -6
23 -8 33 -5 9 3 17 1 17 -5 0 -6 -7 -11 -16 -11 -21 0 -54 18 -54 30 0 14 37
13 46 -1z m145 -21 c15 -28 4 -34 -25 -14 -15 9 -23 22 -20 30 7 19 31 10 45
-16z m700 -4 c18 -20 48 -45 64 -55 17 -10 23 -19 15 -19 -9 0 -32 11 -52 25
-21 14 -48 29 -62 35 -18 7 -23 14 -19 29 7 29 14 27 54 -15z m123 -62 c-3 -6
-57 29 -86 56 -15 14 -25 29 -22 34 3 5 29 -12 58 -39 28 -26 51 -49 50 -51z
m-1119 68 c3 -5 -5 -6 -17 -3 -22 4 -23 4 -4 -11 24 -19 7 -21 -19 -3 -10 8
-15 19 -12 25 7 11 44 5 52 -8z m90 -29 c-10 -16 -25 -3 -25 22 0 20 1 20 16
5 9 -9 13 -21 9 -27z m406 24 c19 -8 27 -14 19 -14 -14 0 -72 28 -59 29 4 0
22 -7 40 -15z m788 -11 c14 -12 -19 -1 -35 12 -18 14 -18 14 6 3 14 -6 27 -13
29 -15z m-543 -11 c-8 -8 -36 5 -36 17 0 7 6 7 21 0 11 -7 18 -14 15 -17z
m123 -8 c77 -43 109 -65 94 -65 -14 0 -133 67 -153 86 -23 22 -7 17 59 -21z
m-613 4 c19 -11 34 -23 34 -25 0 -5 -44 17 -70 35 -28 20 3 11 36 -10z m134
-1 c0 -5 -9 -4 -20 2 -11 6 -20 12 -20 14 0 2 9 2 20 -1 11 -3 20 -9 20 -15z
m284 12 c17 -6 24 -14 20 -24 -5 -14 -9 -14 -35 0 -48 24 -36 44 15 24z m696
0 c8 -5 11 -10 5 -10 -5 0 -17 5 -25 10 -8 5 -10 10 -5 10 6 0 17 -5 25 -10z
m-1321 -22 c14 -19 5 -23 -18 -9 -7 5 -10 14 -6 21 4 6 8 10 9 8 1 -2 8 -11
15 -20z m551 -9 c0 -5 -11 -3 -25 3 -14 6 -25 15 -25 19 0 5 11 3 25 -3 14 -6
25 -15 25 -19z m260 -23 c42 -24 43 -26 17 -26 -36 0 -97 40 -97 64 0 18 1 18
18 3 9 -8 37 -27 62 -41z m-708 27 c21 -19 23 -33 5 -33 -18 0 -49 34 -40 43
9 10 14 9 35 -10z m78 -5 c40 -23 55 -43 23 -31 -24 9 -83 44 -83 49 0 10 24
2 60 -18z m140 -15 c0 -10 -4 -11 -18 -2 -10 7 -19 17 -19 24 0 10 5 10 19 2
10 -7 18 -18 18 -24z m1045 27 c3 -6 -1 -7 -9 -4 -18 7 -21 14 -7 14 6 0 13
-4 16 -10z m-4061 -81 c-25 -27 -26 -19 -6 37 l17 49 3 -33 c2 -22 -3 -41 -14
-53z m3088 63 c-7 -2 -9 -9 -5 -15 4 -7 -1 -6 -10 2 -20 16 -13 33 10 24 11
-4 13 -8 5 -11z m554 -3 c38 -23 42 -29 17 -29 -21 0 -84 49 -64 50 7 0 29 -9
47 -21z m-330 -17 c-7 -7 -46 9 -46 18 0 5 11 4 25 -2 14 -6 23 -13 21 -16z
m125 -8 c9 -11 8 -14 -9 -14 -24 0 -72 20 -72 30 0 23 58 12 81 -16z m-675 5
c19 -22 19 -22 -3 -10 -13 6 -23 16 -23 21 0 15 5 12 26 -11z m234 -15 c0 -2
-9 0 -20 6 -11 6 -20 13 -20 16 0 2 9 0 20 -6 11 -6 20 -13 20 -16z m166 10
c18 -15 18 -15 -3 -5 -27 13 -33 14 -33 2 0 -5 8 -12 18 -14 13 -4 11 -5 -5
-6 -17 -1 -23 5 -23 19 0 24 19 26 46 4z m-292 -20 c3 -8 -1 -14 -8 -14 -16 0
-38 24 -30 33 9 9 32 -3 38 -19z m191 16 c3 -6 -1 -7 -9 -4 -18 7 -21 14 -7
14 6 0 13 -4 16 -10z m1065 -17 c12 -12 7 -11 -20 2 -45 22 -52 29 -20 20 14
-4 32 -14 40 -22z m-230 -9 c0 -2 -9 0 -20 6 -11 6 -20 13 -20 16 0 2 9 0 20
-6 11 -6 20 -13 20 -16z m-910 -6 c40 -23 54 -43 23 -31 -20 7 -78 53 -68 53
3 0 24 -10 45 -22z m-25 -36 c-3 -3 -18 7 -33 23 l-27 28 33 -23 c18 -12 31
-25 27 -28z m114 27 c18 -11 31 -23 28 -26 -6 -5 -77 34 -77 43 0 9 16 3 49
-17z m181 -1 c0 -5 3 -7 8 -4 4 2 16 -2 27 -10 18 -14 18 -14 -1 -14 -11 0
-31 11 -45 26 -17 18 -19 23 -6 18 9 -3 17 -10 17 -16z m597 -18 c68 -52 69
-61 1 -13 -65 45 -74 53 -63 53 4 0 32 -18 62 -40z m194 23 c13 -16 12 -17 -3
-4 -10 7 -18 15 -18 17 0 8 8 3 21 -13z m-815 -24 c18 -19 22 -28 11 -24 -9 4
-17 11 -17 17 0 5 -4 6 -10 3 -13 -8 -52 14 -45 26 11 17 31 10 61 -22z m589
-15 c30 -20 55 -39 55 -41 0 -6 -94 47 -110 63 -26 25 -1 15 55 -22z m345 -6
c0 -4 -16 2 -35 13 -19 12 -35 23 -35 25 0 2 16 -4 35 -13 19 -9 35 -20 35
-25z m-419 15 c13 -17 13 -17 -6 -3 -11 8 -22 16 -24 17 -2 2 0 3 6 3 6 0 17
-8 24 -17z m169 7 c8 -5 11 -10 5 -10 -5 0 -17 5 -25 10 -8 5 -10 10 -5 10 6
0 17 -5 25 -10z m-243 -41 c29 -23 53 -44 53 -46 0 -3 -15 6 -32 19 -18 14
-51 35 -73 46 -26 14 -33 21 -21 22 11 0 43 -19 73 -41z m56 10 c5 -3 -3 -4
-17 -2 -14 3 -31 12 -37 20 -11 12 -8 12 17 2 16 -7 33 -16 37 -20z m-712 -6
c13 -16 12 -17 -3 -4 -10 7 -18 15 -18 17 0 8 8 3 21 -13z m89 -18 c19 -19 32
-35 29 -35 -3 0 -22 16 -43 35 -21 19 -34 35 -29 35 5 0 24 -16 43 -35z m150
0 c27 -13 51 -29 54 -34 5 -7 -97 43 -113 56 -14 10 16 0 59 -22z m65 4 c15
-14 -7 -10 -35 7 l-25 15 25 -7 c14 -3 29 -10 35 -15z m167 1 c18 -11 29 -20
23 -20 -5 0 -23 9 -40 20 -39 26 -25 26 17 0z m-304 -27 c17 -13 32 -28 32
-33 0 -5 -11 1 -24 13 -13 12 -34 30 -47 40 -35 26 0 8 39 -20z m598 5 l29
-33 -32 29 c-31 28 -38 36 -30 36 2 0 16 -15 33 -32z m-536 -18 c0 -15 -5 -12
-26 11 -19 22 -19 22 4 10 12 -6 22 -16 22 -21z m376 -52 c4 -6 -14 4 -39 23
-25 19 -46 38 -47 42 0 10 76 -48 86 -65z m4 36 c0 -2 -9 0 -20 6 -11 6 -20
13 -20 16 0 2 9 0 20 -6 11 -6 20 -13 20 -16z m-234 -15 c3 -6 -5 -3 -20 6
-14 10 -26 19 -26 22 0 7 39 -17 46 -28z m40 3 c-4 -3 -14 2 -24 12 -16 18
-16 18 6 6 13 -6 21 -14 18 -18z m524 3 c13 -14 21 -25 18 -25 -2 0 -15 11
-28 25 -13 14 -21 25 -18 25 2 0 15 -11 28 -25z m-634 -16 c3 -6 -5 -3 -20 6
-14 10 -26 19 -26 22 0 7 39 -17 46 -28z m411 -24 c5 -7 25 -27 47 -44 21 -17
34 -31 29 -31 -6 0 -42 30 -79 66 -38 36 -54 56 -37 44 18 -11 36 -27 40 -35z
m193 30 c13 -14 21 -25 18 -25 -2 0 -15 11 -28 25 -13 14 -21 25 -18 25 2 0
15 -11 28 -25z m-569 -2 c13 -16 12 -17 -3 -4 -10 7 -18 15 -18 17 0 8 8 3 21
-13z m220 -10 c13 -16 12 -17 -3 -4 -10 7 -18 15 -18 17 0 8 8 3 21 -13z
m-100 -10 c13 -16 12 -17 -3 -4 -10 7 -18 15 -18 17 0 8 8 3 21 -13z m220 -60
c13 -16 12 -17 -3 -4 -10 7 -18 15 -18 17 0 8 8 3 21 -13z m-3801 -104 c-47
-262 -47 -281 -2 -358 49 -84 125 -154 210 -194 78 -37 80 -38 85 -80 4 -29 1
-47 -9 -58 -7 -8 -17 -29 -20 -47 -5 -25 -1 -35 20 -55 20 -19 26 -34 26 -65
0 -22 -4 -44 -10 -47 -20 -12 -9 -44 23 -69 l32 -26 -1 -142 c-1 -111 -6 -163
-23 -232 -24 -100 -55 -176 -70 -176 -24 0 -51 -41 -51 -77 -1 -49 -20 -73
-57 -73 -16 0 -38 -6 -48 -14 -16 -11 -17 -17 -7 -29 7 -8 9 -17 5 -20 -138
-80 -208 -107 -368 -142 -238 -52 -423 -120 -707 -261 -71 -35 -128 -60 -128
-57 0 13 132 256 203 374 41 68 134 223 207 344 183 303 203 348 255 543 50
191 67 232 238 582 68 140 141 296 163 347 21 51 40 91 41 89 2 -1 -1 -27 -7
-57z m-1323 -3517 c7 -4 16 -22 19 -40 5 -25 3 -32 -10 -32 -25 0 -19 -23 13
-54 17 -16 34 -47 41 -74 18 -72 68 -166 108 -204 20 -19 62 -45 92 -58 30
-13 59 -27 63 -30 4 -4 21 -54 37 -111 16 -57 43 -137 59 -178 17 -41 31 -75
31 -76 0 -2 -9 -5 -20 -8 -23 -6 -27 -42 -7 -72 7 -11 14 -32 15 -46 2 -39 47
-131 77 -159 34 -32 44 -57 55 -143 7 -55 14 -75 36 -98 24 -25 26 -33 20 -77
-3 -27 -7 -98 -7 -157 0 -104 -1 -108 -27 -130 l-27 -23 24 -26 c13 -14 25
-40 27 -58 1 -18 4 -50 6 -70 2 -20 12 -45 21 -56 15 -16 16 -24 6 -46 -10
-21 -9 -32 1 -53 18 -36 19 -111 3 -118 -17 -6 -16 -40 1 -74 11 -21 12 -38 5
-72 -17 -79 -30 -107 -50 -112 -25 -7 -51 -69 -43 -102 3 -14 16 -33 29 -43
21 -17 22 -21 11 -82 -6 -36 -19 -77 -29 -92 -12 -17 -17 -40 -15 -60 2 -24
-14 -70 -57 -165 l-60 -132 -12 44 c-8 24 -32 64 -58 93 -29 32 -45 59 -45 76
0 34 -30 49 -83 41 -52 -8 -100 21 -129 76 -29 56 -58 227 -65 381 l-6 138 36
0 c83 0 111 36 82 106 -34 83 -45 171 -45 382 -1 221 -11 322 -59 607 -17 99
-31 181 -31 183 0 1 8 2 18 2 56 0 66 58 14 82 -24 12 -35 38 -105 248 -66
199 -76 238 -66 257 19 36 3 71 -50 103 -40 25 -51 38 -61 75 -7 24 -10 55 -6
68 9 39 167 177 201 177 6 0 16 -4 22 -8z m3374 -172 l30 -55 -36 40 c-49 54
-62 78 -41 73 9 -1 30 -28 47 -58z m-2901 -748 c0 -15 -2 -15 -10 -2 -13 20
-13 33 0 25 6 -3 10 -14 10 -23z"/>
<path d="M7419 11493 c-16 -19 -18 -23 -4 -12 11 9 29 21 40 27 15 9 16 11 4
12 -8 0 -26 -12 -40 -27z"/>
<path d="M7519 11493 c-13 -15 -12 -15 11 -3 34 17 36 20 18 20 -9 0 -22 -7
-29 -17z"/>
<path d="M7144 11435 c-16 -12 -17 -14 -3 -15 9 0 19 7 23 15 7 19 5 19 -20 0z"/>
<path d="M7200 11215 c0 -10 10 -15 33 -14 17 0 25 3 17 6 -8 3 -23 10 -32 15
-13 6 -18 5 -18 -7z"/>
<path d="M7128 11213 c7 -3 16 -2 19 1 4 3 -2 6 -13 5 -11 0 -14 -3 -6 -6z"/>
<path d="M7088 11203 c7 -3 16 -2 19 1 4 3 -2 6 -13 5 -11 0 -14 -3 -6 -6z"/>
<path d="M7335 11190 c17 -4 46 -8 65 -8 l35 0 -40 9 c-22 4 -51 8 -65 7 -23
0 -22 -1 5 -8z"/>
<path d="M6999 11153 c-13 -17 -13 -17 6 -3 11 8 22 16 24 17 2 2 0 3 -6 3 -6
0 -17 -8 -24 -17z"/>
<path d="M7048 11153 c7 -3 16 -2 19 1 4 3 -2 6 -13 5 -11 0 -14 -3 -6 -6z"/>
<path d="M7085 11140 c3 -5 8 -10 11 -10 2 0 4 5 4 10 0 6 -5 10 -11 10 -5 0
-7 -4 -4 -10z"/>
<path d="M7150 11150 c0 -5 7 -7 16 -3 11 4 23 -1 32 -13 14 -18 14 -18 8 -1
-3 10 -6 21 -6 23 0 2 -11 4 -25 4 -14 0 -25 -4 -25 -10z"/>
<path d="M7158 11113 c7 -3 16 -2 19 1 4 3 -2 6 -13 5 -11 0 -14 -3 -6 -6z"/>
<path d="M7260 11131 c5 -11 16 -23 23 -27 7 -5 6 -1 -2 10 -13 15 -13 19 0
27 11 7 9 9 -9 9 -19 0 -21 -3 -12 -19z"/>
<path d="M6760 11015 c-19 -14 -29 -25 -23 -25 7 0 25 11 40 25 36 31 28 31
-17 0z"/>
<path d="M6580 11000 c0 -19 3 -21 12 -12 9 9 9 15 0 24 -9 9 -12 7 -12 -12z"/>
<path d="M6964 11054 c3 -9 6 -20 6 -25 0 -5 11 -9 24 -9 19 0 22 4 18 25 -3
19 -11 25 -29 25 -19 0 -24 -4 -19 -16z m36 -9 c0 -8 -4 -15 -9 -15 -5 0 -11
7 -15 15 -3 9 0 15 9 15 8 0 15 -7 15 -15z"/>
<path d="M7365 11070 l-50 -7 53 -1 c29 -1 52 2 52 8 0 6 -1 9 -2 8 -2 0 -25
-4 -53 -8z"/>
<path d="M6907 11042 c3 -12 -4 -21 -19 -28 -13 -5 -17 -9 -10 -7 8 2 22 3 32
3 13 0 17 5 13 20 -3 11 -9 22 -13 25 -5 3 -6 -3 -3 -13z"/>
<path d="M7191 11066 c2 -2 21 -6 42 -10 27 -5 37 -4 32 3 -3 6 -22 11 -42 11
-20 0 -34 -2 -32 -4z"/>
<path d="M7208 11043 c7 -3 16 -2 19 1 4 3 -2 6 -13 5 -11 0 -14 -3 -6 -6z"/>
<path d="M7328 11003 c12 -2 30 -2 40 0 9 3 -1 5 -23 4 -22 0 -30 -2 -17 -4z"/>
<path d="M7210 10990 l-35 -7 35 -1 c19 0 49 4 65 8 l30 8 -30 0 c-16 -1 -46
-4 -65 -8z"/>
<path d="M7120 10971 c0 -5 -8 -12 -17 -14 -14 -4 -12 -5 5 -6 13 -1 22 5 22
14 0 8 -2 15 -5 15 -3 0 -5 -4 -5 -9z"/>
<path d="M6653 10938 c-24 -16 -43 -33 -43 -39 0 -16 18 -10 33 11 8 11 17 17
22 12 5 -4 4 -1 0 7 -6 11 -4 13 9 8 10 -4 19 -1 23 9 9 25 0 23 -44 -8z"/>
<path d="M6775 10950 c-3 -6 1 -7 9 -4 18 7 21 14 7 14 -6 0 -13 -4 -16 -10z"/>
<path d="M6826 10933 c15 -16 15 -17 -2 -24 -17 -7 -17 -8 4 -8 12 -1 22 2 22
5 0 13 -22 44 -31 44 -6 0 -3 -8 7 -17z"/>
<path d="M6887 10953 c-3 -5 -1 -15 5 -23 8 -12 9 -12 4 3 -6 18 18 25 27 7 3
-6 4 -5 3 2 -3 15 -32 23 -39 11z"/>
<path d="M6451 10904 c0 -11 3 -14 6 -6 3 7 2 16 -1 19 -3 4 -6 -2 -5 -13z"/>
<path d="M7313 10938 c1 -10 -16 -12 -66 -11 -42 2 -66 -1 -62 -7 3 -6 34 -10
68 -10 51 0 64 3 75 20 10 17 10 20 -3 20 -8 0 -14 -6 -12 -12z"/>
<path d="M7258 10933 c6 -2 18 -2 25 0 6 3 1 5 -13 5 -14 0 -19 -2 -12 -5z"/>
<path d="M7425 10940 c-4 -6 6 -7 27 -3 44 8 48 13 10 13 -17 0 -34 -4 -37
-10z"/>
<path d="M6724 10909 c-3 -6 3 -20 14 -31 15 -15 21 -17 27 -7 5 7 4 10 -2 6
-14 -9 -37 19 -28 33 3 5 4 10 1 10 -3 0 -8 -5 -12 -11z"/>
<path d="M7118 10893 c6 -2 18 -2 25 0 6 3 1 5 -13 5 -14 0 -19 -2 -12 -5z"/>
<path d="M7008 10873 c6 -2 18 -2 25 0 6 3 1 5 -13 5 -14 0 -19 -2 -12 -5z"/>
<path d="M6332 10860 c0 -14 2 -19 5 -12 2 6 2 18 0 25 -3 6 -5 1 -5 -13z"/>
<path d="M6530 10852 c-24 -20 -30 -31 -21 -36 15 -10 58 27 58 49 0 19 3 20
-37 -13z m15 -12 c-10 -11 -23 -20 -29 -20 -6 1 0 10 13 20 30 26 39 26 16 0z"/>
<path d="M6683 10859 c9 -6 15 -14 12 -20 -4 -5 -1 -9 4 -9 6 0 11 4 11 8 0
12 -22 32 -34 32 -6 0 -3 -5 7 -11z"/>
<path d="M6606 10832 c-2 -4 14 -8 37 -10 47 -3 47 2 0 11 -18 4 -34 3 -37 -1z"/>
<path d="M6915 10870 c3 -5 13 -10 21 -10 8 0 14 5 14 10 0 6 -9 10 -21 10
-11 0 -17 -4 -14 -10z"/>
<path d="M7225 10851 l20 -8 -20 -5 c-14 -4 -15 -6 -4 -7 9 0 22 6 29 14 11
13 8 15 -16 14 -25 0 -26 -2 -9 -8z"/>
<path d="M6835 10849 l-30 -8 30 2 c17 1 37 -3 45 -8 13 -8 13 -7 1 8 -7 9
-14 16 -15 16 0 -1 -14 -5 -31 -10z"/>
<path d="M6790 10823 c0 -16 25 -23 41 -11 11 8 11 9 -2 5 -9 -3 -22 0 -28 6
-8 8 -11 8 -11 0z"/>
<path d="M7105 10840 c3 -5 8 -10 11 -10 2 0 4 5 4 10 0 6 -5 10 -11 10 -5 0
-7 -4 -4 -10z"/>
<path d="M7108 10813 c7 -3 16 -2 19 1 4 3 -2 6 -13 5 -11 0 -14 -3 -6 -6z"/>
<path d="M6270 10823 c0 -10 5 -25 10 -33 7 -11 10 -7 10 18 0 17 -4 32 -10
32 -5 0 -10 -8 -10 -17z"/>
<path d="M6214 10786 c-8 -20 11 -53 20 -37 4 6 3 11 -2 11 -6 0 -8 9 -5 20 6
23 -5 27 -13 6z"/>
<path d="M6420 10770 c-19 -17 -29 -30 -23 -30 6 0 16 7 23 15 7 8 18 15 25
15 7 0 15 7 19 15 8 22 -5 18 -44 -15z"/>
<path d="M6705 10780 l-20 -9 20 -1 20 -1 -20 -9 c-16 -7 -16 -9 -4 -9 9 -1
27 7 39 17 20 16 20 18 3 19 -10 0 -27 -3 -38 -7z"/>
<path d="M6557 10774 c-8 -9 34 -64 49 -64 18 0 26 17 13 26 -8 4 -9 3 -5 -4
13 -22 -15 -12 -34 10 -13 17 -15 25 -7 30 8 5 8 8 1 8 -6 0 -13 -3 -17 -6z"/>
<path d="M6595 10760 c3 -5 8 -10 11 -10 2 0 4 5 4 10 0 6 -5 10 -11 10 -5 0
-7 -4 -4 -10z"/>
<path d="M6815 10751 c-3 -5 0 -13 6 -17 7 -4 9 -3 5 4 -3 5 0 13 6 15 9 4 10
6 1 6 -6 1 -14 -3 -18 -8z"/>
<path d="M6845 10740 c-3 -5 -1 -10 4 -10 6 0 11 5 11 10 0 6 -2 10 -4 10 -3
0 -8 -4 -11 -10z"/>
<path d="M7120 10760 c-8 -5 -10 -10 -5 -10 6 0 17 5 25 10 8 5 11 10 5 10 -5
0 -17 -5 -25 -10z"/>
<path d="M6160 10740 c0 -8 5 -22 10 -30 9 -13 10 -13 10 0 0 8 -5 22 -10 30
-9 13 -10 13 -10 0z"/>
<path d="M6470 10729 l-25 -21 29 17 c27 16 29 16 49 -4 21 -20 21 -21 2 -21
-11 -1 -31 -8 -45 -16 -16 -10 -18 -13 -5 -8 11 4 32 9 48 12 33 5 34 12 4 40
-28 27 -26 27 -57 1z"/>
<path d="M6390 10679 c0 -5 5 -7 10 -4 6 3 10 8 10 11 0 2 -4 4 -10 4 -5 0
-10 -5 -10 -11z"/>
<path d="M6418 10663 c6 -2 18 -2 25 0 6 3 1 5 -13 5 -14 0 -19 -2 -12 -5z"/>
<path d="M7033 10733 c9 -2 23 -2 30 0 6 3 -1 5 -18 5 -16 0 -22 -2 -12 -5z"/>
<path d="M6765 10721 c6 -11 4 -13 -11 -7 -14 5 -16 4 -8 -4 7 -7 20 -10 29
-8 17 3 17 4 0 18 -15 12 -17 12 -10 1z"/>
<path d="M6938 10703 c7 -3 16 -2 19 1 4 3 -2 6 -13 5 -11 0 -14 -3 -6 -6z"/>
<path d="M6107 10703 c-2 -4 -1 -17 3 -28 7 -19 8 -19 15 -2 8 18 -9 46 -18
30z"/>
<path d="M6311 10686 c-9 -10 -9 -16 -1 -21 17 -10 37 12 24 25 -8 8 -15 6
-23 -4z m19 -6 c0 -5 -5 -10 -11 -10 -5 0 -7 5 -4 10 3 6 8 10 11 10 2 0 4 -4
4 -10z"/>
<path d="M6271 10656 c-8 -10 -9 -16 -1 -21 5 -3 10 -5 11 -3 4 18 7 38 4 38
-1 0 -8 -6 -14 -14z"/>
<path d="M6689 10692 c9 -7 10 -11 2 -15 -7 -4 -8 -5 0 -3 15 2 13 20 -3 24
-10 3 -10 2 1 -6z"/>
<path d="M6617 10663 c-12 -12 -7 -22 8 -17 8 4 15 10 15 15 0 11 -14 12 -23
2z"/>
<path d="M7173 10673 c9 -2 23 -2 30 0 6 3 -1 5 -18 5 -16 0 -22 -2 -12 -5z"/>
<path d="M6057 10663 c-3 -5 0 -19 8 -29 15 -20 18 -11 6 20 -4 11 -10 15 -14
9z"/>
<path d="M6472 10623 c-12 -2 -20 -9 -17 -14 4 -5 1 -9 -6 -9 -7 0 -10 -2 -7
-5 7 -8 58 16 58 27 0 4 -1 7 -2 7 -2 -1 -13 -4 -26 -6z"/>
<path d="M6400 10611 c0 -5 5 -13 10 -16 6 -3 10 -2 10 4 0 5 -4 13 -10 16 -5
3 -10 2 -10 -4z"/>
<path d="M7052 10615 c0 -16 2 -22 5 -12 2 9 2 23 0 30 -3 6 -5 -1 -5 -18z"/>
<path d="M7020 10603 c0 -6 8 -17 18 -24 16 -13 16 -13 2 6 -8 11 -16 22 -17
24 -2 2 -3 0 -3 -6z"/>
<path d="M6010 10624 c0 -6 7 -19 16 -30 14 -18 14 -18 3 6 -14 31 -19 36 -19
24z"/>
<path d="M6217 10614 c7 -3 9 -13 6 -22 -5 -13 -3 -14 7 -5 14 13 5 33 -13 32
-9 0 -9 -2 0 -5z"/>
<path d="M6309 10600 l-24 -20 23 -19 c23 -20 52 -19 52 2 0 8 -4 7 -12 -1 -7
-7 -17 -8 -30 -1 -25 14 -23 26 10 43 15 8 22 15 16 16 -7 0 -22 -9 -35 -20z"/>
<path d="M6361 10583 c7 -12 15 -20 18 -17 3 2 -3 12 -13 22 -17 16 -18 16 -5
-5z"/>
<path d="M6665 10610 c-8 -13 5 -13 25 0 13 8 13 10 -2 10 -9 0 -20 -4 -23
-10z"/>
<path d="M6956 10595 c4 -8 10 -15 15 -15 4 0 6 7 3 15 -4 8 -10 15 -15 15 -4
0 -6 -7 -3 -15z"/>
<path d="M7111 10586 c0 -12 3 -16 5 -9 4 8 16 10 36 6 20 -4 29 -3 25 4 -4 6
-20 13 -37 15 -25 4 -30 1 -29 -16z"/>
<path d="M6605 10590 c3 -5 8 -10 11 -10 2 0 4 5 4 10 0 6 -5 10 -11 10 -5 0
-7 -4 -4 -10z"/>
<path d="M6165 10580 c-3 -5 -1 -10 4 -10 6 0 11 5 11 10 0 6 -2 10 -4 10 -3
0 -8 -4 -11 -10z"/>
<path d="M6471 10546 c-9 -11 -9 -16 1 -22 7 -4 10 -4 6 1 -4 4 -3 14 3 22 6
7 9 13 6 13 -2 0 -10 -6 -16 -14z"/>
<path d="M6790 10540 c6 -11 21 -20 33 -20 l22 1 -24 19 c-30 26 -45 26 -31 0z"/>
<path d="M5920 10545 c0 -15 18 -40 24 -34 3 3 -1 14 -9 25 -8 10 -14 15 -15
9z"/>
<path d="M6269 10527 c12 -15 11 -17 -5 -18 -11 0 -14 -3 -7 -5 7 -3 19 -2 27
3 13 7 12 11 -7 22 -20 13 -21 13 -8 -2z"/>
<path d="M6710 10536 c0 -2 9 -6 20 -9 11 -3 18 -1 14 4 -5 9 -34 13 -34 5z"/>
<path d="M6690 10525 c0 -5 5 -17 10 -25 5 -8 10 -10 10 -5 0 6 -5 17 -10 25
-5 8 -10 11 -10 5z"/>
<path d="M6898 10523 c6 -2 18 -2 25 0 6 3 1 5 -13 5 -14 0 -19 -2 -12 -5z"/>
<path d="M6406 10521 c-3 -5 1 -11 9 -14 9 -4 12 -1 8 9 -6 16 -10 17 -17 5z"/>
<path d="M6070 10504 c0 -5 7 -18 15 -28 8 -11 15 -16 15 -10 0 5 -7 18 -15
28 -8 11 -15 16 -15 10z"/>
<path d="M6636 10499 c4 -7 0 -9 -14 -5 -11 4 -23 2 -27 -4 -4 -6 6 -10 24
-10 21 0 31 5 31 15 0 8 -5 15 -11 15 -5 0 -7 -5 -3 -11z"/>
<path d="M5840 10475 c0 -5 5 -17 10 -25 5 -8 10 -10 10 -5 0 6 -5 17 -10 25
-5 8 -10 11 -10 5z"/>
<path d="M6021 10456 c-15 -18 14 -45 30 -29 8 8 7 11 -2 10 -8 -1 -14 3 -14
8 0 6 4 9 8 7 5 -1 6 2 2 8 -8 13 -10 13 -24 -4z"/>
<path d="M6490 10444 c-14 -7 -20 -13 -15 -13 6 -1 17 4 25 9 11 7 17 5 22 -8
6 -16 7 -16 7 0 1 24 -11 28 -39 12z"/>
<path d="M6500 10395 c-14 -8 -20 -14 -15 -14 6 0 21 6 35 14 14 8 21 14 15
14 -5 0 -21 -6 -35 -14z"/>
<path d="M6428 10378 c6 -6 18 -8 28 -6 14 3 12 5 -9 10 -19 3 -25 2 -19 -4z"/>
<path d="M6680 10435 c0 -8 8 -15 19 -15 10 0 24 7 31 15 9 10 9 15 1 15 -6 0
-11 -4 -11 -10 0 -5 -8 -10 -17 -10 -15 0 -16 2 -3 10 13 8 12 10 -2 10 -10 0
-18 -7 -18 -15z"/>
<path d="M6225 10429 c-9 -14 -2 -20 14 -10 8 6 9 11 3 15 -6 3 -14 1 -17 -5z"/>
<path d="M6580 10428 c0 -13 8 -18 25 -18 14 0 25 5 25 11 0 6 -7 8 -17 5 -9
-4 -20 -1 -25 6 -6 10 -8 8 -8 -4z"/>
<path d="M6780 10420 c0 -6 7 -10 15 -10 8 0 15 2 15 4 0 2 -7 6 -15 10 -8 3
-15 1 -15 -4z"/>
<path d="M6848 10423 c6 -2 18 -2 25 0 6 3 1 5 -13 5 -14 0 -19 -2 -12 -5z"/>
<path d="M5950 10409 c-12 -9 -12 -10 4 -5 11 4 23 1 28 -6 7 -10 9 -10 6 1
-6 20 -20 23 -38 10z"/>
<path d="M6138 10413 c7 -3 16 -2 19 1 4 3 -2 6 -13 5 -11 0 -14 -3 -6 -6z"/>
<path d="M6165 10400 c-3 -5 -1 -10 4 -10 6 0 11 5 11 10 0 6 -2 10 -4 10 -3
0 -8 -4 -11 -10z"/>
<path d="M6120 10380 c-8 -5 -10 -10 -5 -10 6 0 17 5 25 10 8 5 11 10 5 10 -5
0 -17 -5 -25 -10z"/>
<path d="M5766 10397 c3 -10 9 -15 12 -12 3 3 0 11 -7 18 -10 9 -11 8 -5 -6z"/>
<path d="M6340 10361 c6 -13 17 -17 30 -14 11 3 20 8 20 10 0 3 -9 3 -20 0
-13 -3 -20 0 -20 9 0 8 -5 14 -10 14 -7 0 -7 -6 0 -19z"/>
<path d="M5884 10364 c-18 -14 -18 -15 3 -5 16 8 23 8 26 -2 4 -9 6 -9 6 0 2
20 -15 23 -35 7z"/>
<path d="M6037 10369 c-18 -11 -14 -29 6 -29 8 0 8 3 -1 9 -11 7 -11 9 2 14 8
3 17 1 19 -6 2 -7 7 -9 11 -6 13 12 -19 28 -37 18z"/>
<path d="M6746 10365 c6 -14 54 -27 54 -15 0 5 -13 13 -29 18 -24 8 -29 8 -25
-3z"/>
<path d="M5725 10360 c3 -5 11 -10 16 -10 6 0 7 5 4 10 -3 6 -11 10 -16 10 -6
0 -7 -4 -4 -10z"/>
<path d="M6615 10360 c-3 -5 1 -10 10 -10 9 0 13 5 10 10 -3 6 -8 10 -10 10
-2 0 -7 -4 -10 -10z"/>
<path d="M6686 10355 c4 -8 8 -15 10 -15 2 0 4 7 4 15 0 8 -4 15 -10 15 -5 0
-7 -7 -4 -15z"/>
<path d="M5690 10331 c0 -6 4 -13 10 -16 6 -3 7 1 4 9 -7 18 -14 21 -14 7z"/>
<path d="M5825 10320 c-3 -5 -1 -10 4 -10 6 0 11 5 11 10 0 6 -2 10 -4 10 -3
0 -8 -4 -11 -10z"/>
<path d="M6593 10304 c-13 -6 -6 -34 8 -34 4 0 6 7 3 15 -8 20 6 19 23 -2 13
-16 13 -16 3 5 -11 22 -15 24 -37 16z"/>
<path d="M6680 10290 c0 -6 7 -10 15 -10 8 0 15 2 15 4 0 2 -7 6 -15 10 -8 3
-15 1 -15 -4z"/>
<path d="M5898 10273 c7 -3 16 -2 19 1 4 3 -2 6 -13 5 -11 0 -14 -3 -6 -6z"/>
<path d="M6275 10260 c3 -5 10 -10 16 -10 5 0 9 5 9 10 0 6 -7 10 -16 10 -8 0
-12 -4 -9 -10z"/>
<path d="M6350 10260 c0 -5 5 -10 11 -10 5 0 7 5 4 10 -3 6 -8 10 -11 10 -2 0
-4 -4 -4 -10z"/>
<path d="M6450 10266 c0 -2 8 -10 18 -17 15 -13 16 -12 3 4 -13 16 -21 21 -21
13z"/>
<path d="M5610 10250 c0 -5 5 -10 11 -10 5 0 7 5 4 10 -3 6 -8 10 -11 10 -2 0
-4 -4 -4 -10z"/>
<path d="M5727 10242 c-10 -10 -17 -23 -17 -28 0 -4 7 2 16 14 15 22 17 22 31
5 13 -17 13 -16 3 5 -13 27 -13 27 -33 4z"/>
<path d="M5740 10200 c-21 -7 -21 -8 -5 -9 11 0 27 4 35 9 18 11 5 11 -30 0z"/>
<path d="M5800 10256 c0 -2 11 -6 25 -8 14 -3 25 -1 25 3 0 5 -11 9 -25 9 -14
0 -25 -2 -25 -4z"/>
<path d="M6110 10233 c14 -3 29 -10 33 -17 6 -7 7 -6 4 4 -2 8 -16 16 -33 17
-25 1 -26 0 -4 -4z"/>
<path d="M6130 10183 c42 -50 53 -53 38 -11 -6 18 -13 27 -16 20 -3 -10 -12
-7 -30 10 -18 16 -16 10 8 -19z"/>
<path d="M6010 10201 c0 -6 4 -13 10 -16 6 -3 7 1 4 9 -7 18 -14 21 -14 7z"/>
<path d="M6071 10146 c15 -16 34 -26 44 -24 17 3 17 4 0 18 -11 9 -16 10 -11
3 11 -20 -5 -15 -33 9 l-26 22 26 -28z"/>
<path d="M6200 10213 c0 -5 5 -15 11 -23 9 -13 10 -12 5 3 -6 20 19 24 27 5 3
-8 6 -6 6 5 1 12 -7 17 -24 17 -14 0 -25 -3 -25 -7z"/>
<path d="M6250 10169 c0 -6 -7 -9 -15 -5 -8 3 -15 1 -15 -4 0 -6 9 -10 20 -10
11 0 20 7 20 15 0 8 -2 15 -5 15 -3 0 -5 -5 -5 -11z"/>
<path d="M6505 10211 c-3 -5 -1 -12 5 -16 13 -8 50 4 50 16 0 6 -7 6 -19 -1
-25 -13 -34 -13 -26 0 3 6 4 10 1 10 -3 0 -7 -4 -11 -9z"/>
<path d="M6300 10193 c0 -12 3 -14 8 -7 4 7 16 14 27 17 15 4 14 5 -7 6 -21 1
-28 -4 -28 -16z"/>
<path d="M6369 10191 c11 -7 5 -11 -23 -16 -20 -4 -35 -10 -32 -12 3 -3 28 1
56 8 39 10 47 15 33 20 -10 4 -25 8 -33 8 -13 1 -13 -1 -1 -8z"/>
<path d="M5651 10176 c-9 -10 -9 -16 -1 -21 6 -4 14 -4 17 -1 4 3 0 6 -8 6
-10 1 -8 5 5 15 11 8 15 15 9 15 -6 0 -16 -6 -22 -14z"/>
<path d="M5960 10130 c-6 -11 -8 -20 -6 -20 3 0 10 9 16 20 6 11 8 20 6 20 -3
0 -10 -9 -16 -20z"/>
<path d="M5590 10130 c-13 -8 -13 -10 2 -10 9 0 20 5 23 10 8 13 -5 13 -25 0z"/>
<path d="M5905 10091 c3 -6 -3 -14 -12 -20 -10 -6 -13 -10 -8 -10 6 0 18 6 28
13 16 12 16 14 2 20 -9 3 -13 2 -10 -3z"/>
<path d="M5850 10070 c0 -5 5 -10 11 -10 5 0 7 5 4 10 -3 6 -8 10 -11 10 -2 0
-4 -4 -4 -10z"/>
<path d="M6024 10121 c4 -5 0 -12 -6 -14 -7 -3 -2 -6 11 -6 20 -1 21 1 11 14
-14 16 -25 21 -16 6z"/>
<path d="M5763 10093 c-7 -3 -13 -12 -13 -21 1 -15 2 -14 11 2 9 14 13 16 20
5 4 -7 11 -11 14 -8 8 9 -18 27 -32 22z"/>
<path d="M5680 10050 c0 -5 7 -7 15 -4 8 4 15 8 15 10 0 2 -7 4 -15 4 -8 0
-15 -4 -15 -10z"/>
<path d="M5726 9985 c10 -8 24 -14 29 -14 6 0 1 6 -9 14 -11 8 -24 15 -30 15
-5 0 -1 -7 10 -15z"/>
<path d="M6588 9693 c7 -3 16 -2 19 1 4 3 -2 6 -13 5 -11 0 -14 -3 -6 -6z"/>
<path d="M6160 9680 c0 -6 7 -10 15 -10 8 0 15 2 15 4 0 2 -7 6 -15 10 -8 3
-15 1 -15 -4z"/>
<path d="M6658 9683 c7 -3 16 -2 19 1 4 3 -2 6 -13 5 -11 0 -14 -3 -6 -6z"/>
<path d="M6320 9650 c0 -5 4 -10 9 -10 6 0 13 5 16 10 3 6 -1 10 -9 10 -9 0
-16 -4 -16 -10z"/>
<path d="M5938 9583 c7 -3 16 -2 19 1 4 3 -2 6 -13 5 -11 0 -14 -3 -6 -6z"/>
<path d="M6470 9580 c0 -6 7 -10 15 -10 8 0 15 2 15 4 0 2 -7 6 -15 10 -8 3
-15 1 -15 -4z"/>
<path d="M6553 9570 c2 -9 14 -14 26 -13 13 2 20 -1 16 -7 -3 -6 -1 -10 5 -10
7 0 10 6 8 13 -3 6 -13 12 -24 12 -10 0 -23 5 -27 10 -5 6 -7 4 -4 -5z"/>
<path d="M6117 9540 c3 -11 7 -20 8 -20 1 0 5 9 8 20 3 12 0 20 -8 20 -8 0
-11 -8 -8 -20z"/>
<path d="M6130 9500 c0 -5 5 -10 11 -10 5 0 7 5 4 10 -3 6 -8 10 -11 10 -2 0
-4 -4 -4 -10z"/>
<path d="M6713 9544 c16 -16 75 -31 89 -22 10 8 9 9 -4 5 -9 -3 -18 -2 -20 2
-2 5 -19 12 -38 16 -19 4 -32 4 -27 -1z"/>
<path d="M6805 9500 c3 -5 8 -10 11 -10 2 0 4 5 4 10 0 6 -5 10 -11 10 -5 0
-7 -4 -4 -10z"/>
<path d="M6191 9513 c2 -25 2 -25 6 -5 4 20 7 21 21 10 15 -12 16 -11 3 5 -20
25 -31 21 -30 -10z"/>
<path d="M6657 9519 c7 -7 15 -10 18 -7 3 3 -2 9 -12 12 -14 6 -15 5 -6 -5z"/>
<path d="M6295 9500 c3 -5 8 -10 11 -10 2 0 4 5 4 10 0 6 -5 10 -11 10 -5 0
-7 -4 -4 -10z"/>
<path d="M6860 9490 c0 -19 20 -27 33 -13 8 7 -11 33 -24 33 -5 0 -9 -9 -9
-20z m25 0 c3 -5 1 -10 -4 -10 -6 0 -11 5 -11 10 0 6 2 10 4 10 3 0 8 -4 11
-10z"/>
<path d="M6990 9480 c19 -13 30 -13 30 0 0 6 -10 10 -22 10 -19 0 -20 -2 -8
-10z"/>
<path d="M6268 9470 c20 -23 15 -43 -9 -37 -16 4 -19 3 -11 -5 14 -14 42 -3
42 15 0 8 -8 21 -17 28 -15 11 -16 11 -5 -1z"/>
<path d="M7139 9464 c6 -3 8 -11 5 -19 -3 -7 -1 -15 4 -19 5 -3 8 5 7 16 -1
12 -7 23 -14 24 -6 1 -7 0 -2 -2z"/>
<path d="M7250 9446 c14 -8 29 -12 34 -8 10 6 -20 20 -44 21 -8 0 -4 -6 10
-13z"/>
<path d="M7414 9415 c17 -13 33 -22 38 -19 4 3 8 0 8 -5 0 -6 5 -11 12 -11 6
0 -1 14 -17 30 -16 17 -38 30 -49 30 -19 -1 -18 -3 8 -25z m27 -2 c13 -17 13
-17 -6 -3 -11 8 -22 16 -24 17 -2 2 0 3 6 3 6 0 17 -8 24 -17z"/>
<path d="M6531 9432 c-1 -20 47 -38 62 -23 10 11 7 12 -12 6 -18 -5 -22 -4
-16 6 6 9 4 11 -8 6 -9 -3 -18 -1 -21 6 -3 9 -5 9 -5 -1z"/>
<path d="M6605 9400 c-4 -6 1 -7 11 -3 13 5 15 3 9 -7 -5 -9 -4 -11 4 -6 6 4
9 12 6 17 -8 12 -22 12 -30 -1z"/>
<path d="M7325 9420 c-4 -6 -4 -14 -1 -17 3 -4 6 -1 6 6 0 7 5 9 10 6 6 -4 8
-11 5 -16 -4 -5 -1 -9 4 -9 15 0 14 15 -3 29 -10 9 -16 9 -21 1z"/>
<path d="M6324 9411 c4 -6 1 -11 -6 -11 -8 0 -6 -5 5 -11 9 -5 21 -8 26 -4 5
3 12 -1 14 -7 4 -8 6 -9 6 -2 1 7 -11 19 -25 29 -15 9 -23 12 -20 6z"/>
<path d="M7210 9406 c0 -2 7 -6 15 -10 8 -3 15 -1 15 4 0 6 -7 10 -15 10 -8 0
-15 -2 -15 -4z"/>
<path d="M7105 9390 c27 -12 43 -12 25 0 -8 5 -22 9 -30 9 -10 0 -8 -3 5 -9z"/>
<path d="M6670 9361 c0 -5 7 -12 16 -15 14 -5 15 -4 4 9 -14 17 -20 19 -20 6z"/>
<path d="M7280 9366 c0 -8 7 -16 15 -20 9 -3 15 0 15 8 0 8 -7 16 -15 20 -9 3
-15 0 -15 -8z"/>
<path d="M7410 9350 c14 -10 27 -16 30 -13 6 6 -30 33 -44 33 -6 0 0 -9 14
-20z"/>
<path d="M7515 9351 c-4 -7 0 -8 11 -4 12 4 15 3 10 -5 -4 -7 -2 -12 4 -12 14
0 8 22 -7 27 -6 2 -14 -1 -18 -6z"/>
<path d="M7585 9360 c3 -5 8 -10 11 -10 2 0 4 5 4 10 0 6 -5 10 -11 10 -5 0
-7 -4 -4 -10z"/>
<path d="M6538 9323 c7 -3 16 -2 19 1 4 3 -2 6 -13 5 -11 0 -14 -3 -6 -6z"/>
<path d="M6818 9328 c5 -5 16 -8 23 -6 8 3 3 7 -10 11 -17 4 -21 3 -13 -5z"/>
<path d="M7120 9326 c0 -2 7 -6 15 -10 8 -3 15 -1 15 4 0 6 -7 10 -15 10 -8 0
-15 -2 -15 -4z"/>
<path d="M7195 9300 c4 -6 10 -8 15 -5 4 3 11 -1 13 -7 3 -8 6 -6 6 5 1 11 -6
17 -20 17 -11 0 -17 -5 -14 -10z"/>
<path d="M7471 9306 c2 -2 20 -11 39 -20 l35 -17 -25 20 c-14 11 -31 21 -39
21 -8 0 -12 -2 -10 -4z"/>
<path d="M6891 9297 c2 -1 12 -9 22 -16 15 -12 17 -12 11 3 -3 9 -13 16 -22
16 -8 0 -13 -1 -11 -3z"/>
<path d="M7594 9301 c4 -5 2 -11 -3 -13 -4 -1 7 -11 27 -20 l34 -17 -28 30
c-27 29 -40 37 -30 20z"/>
<path d="M7670 9285 c13 -14 26 -25 28 -25 3 0 -5 11 -18 25 -13 14 -26 25
-28 25 -3 0 5 -11 18 -25z"/>
<path d="M7298 9253 c7 -3 16 -2 19 1 4 3 -2 6 -13 5 -11 0 -14 -3 -6 -6z"/>
<path d="M7445 9226 c17 -14 34 -26 39 -26 11 0 11 0 -34 29 l-35 23 30 -26z"/>
<path d="M6760 9235 c7 -8 17 -15 22 -15 6 0 5 7 -2 15 -7 8 -17 15 -22 15 -6
0 -5 -7 2 -15z"/>
<path d="M7364 9215 c11 -8 26 -15 33 -15 22 0 14 8 -19 19 -30 10 -31 9 -14
-4z"/>
<path d="M7170 9150 c8 -5 20 -10 25 -10 6 0 3 5 -5 10 -8 5 -19 10 -25 10 -5
0 -3 -5 5 -10z"/>
</g>
</svg>
