<?xml version="1.0" encoding="utf-8"?>
<!-- Generator: Adobe Illustrator 22.1.0, SVG Export Plug-In . SVG Version: 6.00 Build 0)  -->
<svg version="1.1" xmlns="http://www.w3.org/2000/svg" xmlns:xlink="http://www.w3.org/1999/xlink" x="0px" y="0px"
	 viewBox="0 0 1400 980" style="enable-background:new 0 0 1400 980;" xml:space="preserve">
<style type="text/css">
	.st0{fill:#492F44;}
	.st1{fill:#5B3B56;}
	.st2{fill:#774D72;}
	.st3{fill:#301D2D;}
	.st4{fill:#916090;}
	.st5{fill:#FFFFFF;}
	.st6{fill:#1A6584;}
	.st7{fill:#D58628;}
	.st8{fill:#1DA9C0;}
	.st9{fill:#258DC7;}
	.st10{fill:#F7C23E;}
	.st11{fill:#70CEEB;}
	.st12{fill:#4FBFE4;}
	.st13{fill:#2FA5C0;}
	.st14{fill:#231F20;}
	.st15{fill:none;}
</style>
<g id="Background">
	<g>
		<g id="XMLID_141_">
			<path id="XMLID_297_" class="st0" d="M1311.2,279.3c-6.3-24.6-16.3-48.5-31.9-68.6c-39.4-50.8-109.6-69.6-173.7-63.6
				c-64.1,6-124,33.1-182.7,59.4c-58.7,26.4-119,52.8-183.1,57.6c-67,5-133.3-14.1-197-35.3s-127.6-45.1-194.5-50.3
				c-67-5.2-139.1,11.1-185.6,59.6c-42.2,44.1-57.3,110.1-46.9,170.3c7,40.2,24.3,77.7,47.8,111.2c67.6-11.7,138.9-0.7,202,26.8
				c73.7,32,136.8,85.4,187.6,147.7c28.8,35.3,54.1,73.9,87.8,104.7c52,47.5,120.3,73.2,188.5,90.6c58.4,14.9,123,23.8,176.9-3.3
				c75-37.7,102.9-138.2,77-218c-11.9-36.5-33.1-71.9-30-110.2c3.4-41.5,35.4-75.8,71.5-96.6c36.1-20.8,77.1-31.4,115.3-48.2
				c28.6-12.6,57.4-30.4,69.7-59.1C1320,330.7,1317.5,303.9,1311.2,279.3z"/>
			<path id="XMLID_144_" class="st0" d="M1311.2,279.3c-6.3-24.6-16.3-48.5-31.9-68.6c-39.4-50.8-109.6-69.6-173.7-63.6
				c-64.1,6-124,33.1-182.7,59.4c-58.7,26.4-119,52.8-183.1,57.6c-67,5-133.3-14.1-197-35.3s-127.6-45.1-194.5-50.3
				c-67-5.2-139.1,11.1-185.6,59.6c-42.2,44.1-57.3,110.1-46.9,170.3c7,40.2,24.3,77.7,47.8,111.2c67.6-11.7,138.9-0.7,202,26.8
				c73.7,32,136.8,85.4,187.6,147.7c28.8,35.3,54.1,73.9,87.8,104.7c52,47.5,120.3,73.2,188.5,90.6c58.4,14.9,123,23.8,176.9-3.3
				c75-37.7,102.9-138.2,77-218c-11.9-36.5-33.1-71.9-30-110.2c3.4-41.5,35.4-75.8,71.5-96.6c36.1-20.8,77.1-31.4,115.3-48.2
				c28.6-12.6,57.4-30.4,69.7-59.1C1320,330.7,1317.5,303.9,1311.2,279.3z"/>
		</g>
		<path id="XMLID_294_" class="st1" d="M945.7,236.2L705.1,476.8l23.5,146.2l189.5,148.8l167.1,13.4c10.8-37.9,10.4-79.7-1.7-117.1
			c-11.9-36.5-33.1-71.9-30-110.2c3.4-41.5,35.4-75.8,71.5-96.6c13.8-7.9,28.3-14.4,43.1-20.3l-1.1-1.3L945.7,236.2z"/>
		<path id="XMLID_390_" class="st2" d="M897.5,472.3l76.7,216.4l114.1-2.6c-1.3-6.1-3-12.1-4.9-18.1c-11.9-36.5-33.1-71.9-30-110.2
			c3.4-41.5,35.4-75.8,71.5-96.6c13.8-7.9,28.3-14.4,43.1-20.3l-1.1-1.3L945.7,236.2l-1.4,1.4l31.4,169.6L897.5,472.3z"/>
		<g id="XMLID_387_">
			<path id="XMLID_11_" class="st3" d="M293.5,353.2h-6.9h-16.8l-8.9,0.1c1.4-0.9-6.4-2.5-6.4-2.5l-4.9-7.3
				c-2.5-3.8-7.3-7.9-11.6-10.4c0,0,0,0-0.1,0c-5.1-3-10.5-5.3-16.2-6.8l-0.2-0.1l-1.3-6.4c0.5-0.5,0.9-0.9,1.3-1.4
				c0.2-4.2-1.2-8.3-3.8-11.5l0.6-6.8l0.6,0.3c1.9,0.6,3.9-0.5,4.4-2.4l1-3.3l0.7-2.1c9.2-0.6,15.6-1.9,15.6-3.5
				c0-1.5-6.2-2.9-15.2-3.5c-0.1-0.9-0.5-2-1.2-3.6c-0.1-0.2-0.2-0.5-0.4-0.8c-0.1-0.2-0.2-0.5-0.4-0.7c0,0,0-0.1-0.1-0.1l0,0
				c-3.5-7.3-9.5-19.2-26.2-24.8c-1.2-0.4-2.2,1.7-1.4,2.9c3.5,5,8.8,13.8,9.6,22.2c0,0.2,0,0.5,0.1,0.7c0,0,0,0.1,0,0.1
				c0,0.2,0,0.4,0,0.6c0,0.1,0,0.2,0,0.3c0,0.1,0,0.3,0,0.4c0,0.3,0,0.5,0,0.8c0,0.7-0.3,1.4-0.3,2c-9.5,0.6-16.2,1.9-16.2,3.5
				c0,1.5,5.7,2.8,14,3.4c-2.9,4.6-7.2,8.2-12.1,10.5c-1.6,0.8-3.3,1.6-4.9,2.2c-3.7,1.5-7.6,2.4-11.5,2.3
				c-11.9-0.2-23.1-9.1-34.8-6.7c-5.3,1.1-10,4.7-12.3,9.6c-2.3,4.9-2,10.9,0.9,15.4c1.6,2.5,3.9,4.4,6.4,6.1
				c3.1,2.1,6.6,3.8,10.2,4.8c7.6,2.1,15.8,1,23.1-2c7.3-3,13.7-7.8,19.5-13.1c2.7-2.5,5.4-5.2,9-5.9c1.9-0.4,3.8-0.2,5.7-0.2
				l-4.6,5.8l0,0l-3.8,4.8h0l-0.2,0.3c-5.9,0.6-22.8,3.8-28.9,19.3c-1.3,3.4-2.6,6.2-3.8,8.5l-16.3-0.4c-0.1-0.1-0.3-0.1-0.5-0.2
				l-13-3v0.3c-10-4.7-38.4-15.9-50.3,1.8c-1.3,1.9-2.5,4.2-3.4,6.7c3.4-3.1,8-6.1,13.8-7.6c0,0-11.2,6.6-15.7,14.7
				c-0.7,4.8-0.2,9.7,2.4,13.4c0.4,0.6,0.9,1.1,1.4,1.6c1.1-3.7,5.1-14.6,15.7-20.8c0,0-12.9,13.4-11.5,23.6c0,0,7.9-1.5,15.7-1.2
				c3,0.1,5.9,0.4,8.3,1.2c0,0,0.1-8.9,9.6-15.8c3.1-1.8,6.4-3.3,9.7-4.7c0.5-0.2,1.1-0.4,1.9-0.7c0.8-0.2,1.6-0.4,2.4-0.6l-0.5-0.1
				c0.2-0.1,0.3-0.1,0.5-0.2v0.3l12.7-2.2c0.8-0.1,1.4-0.5,1.9-1l12.1-0.2c-0.8,1.1-1.5,1.9-2.2,2.6c-1.1,1.1-1,2.7-0.1,3.7l0,0
				c0,0,9.1,15.4,34.4,2.3c0.2-0.1,0.3-0.2,0.5-0.2c2.3,2.5,5.1,4.6,8.4,6.2l19.3,9.3l-14.2-4.1c-5.9-1.7-12.1-2.7-18.3-2.8l-35.7-1
				v0l-1.5-0.1c0,0,0,0,0,0c-0.3-0.2-0.7-0.3-1-0.3c-1.8,0-8.8,0.4-11,5.3c-0.9,2,1.3,3.9,3.1,2.7c0.5-0.3,1-0.7,1.5-1.2
				c3.2-2.9,5.2-3.6,6-3.8c0.3-0.1,0.6-0.2,0.8-0.4l2.1,0.4l0,0l0,0l98.8,20.2c0.7,0.1,1.4,0,2-0.3h0c1.8-1,2.2-3.5,0.8-5l-27.5-28
				l0,0l-2.2-2.2c3.1-0.9,10.9,3.8,10.9,3.8l-5.6-8.4l26.3-0.4l2,2.7l7.8-0.3l-2.3-2.5L279,357c7.7-0.1,15.3,0.5,22.8,2l7.2,1.4
				C307.4,356,300.5,353.4,293.5,353.2z M223,351.8c-4.6-7.2-10.7-13.4-17.8-18.1l-3.5-2.3c0.2-0.3,0.4-0.5,0.6-0.8h0
				c0.5-0.6,1-1.2,1.6-1.7c0,0,0,0,0.1-0.1c0.3-0.2,0.6-0.5,0.8-0.7c0,0,0.1-0.1,0.1-0.1c0.3-0.2,0.6-0.5,0.9-0.7l1.4-0.9h0l1.9-1.3
				l4.3-1.4l4,4.6v0c2.2,11.9,11.4,21.3,23.3,23.8l5.8,1.2l-22.2,0.2L223,351.8z"/>
			<path id="XMLID_33_" class="st0" d="M1117.2,419.7h-6.9h-16.8l-8.9,0.1c1.4-0.9-6.4-2.5-6.4-2.5l-4.9-7.3
				c-2.5-3.8-7.3-7.9-11.6-10.4c0,0,0,0-0.1,0c-5.1-3-10.5-5.3-16.2-6.8l-0.2-0.1l-1.3-6.4c0.5-0.5,0.9-0.9,1.3-1.4
				c0.2-4.2-1.2-8.3-3.8-11.5l0.6-6.8l0.6,0.3c1.9,0.6,3.9-0.5,4.4-2.4l1-3.3l0.7-2.1c9.2-0.6,15.6-1.9,15.6-3.5
				c0-1.5-6.2-2.9-15.2-3.5c-0.1-0.9-0.5-2-1.2-3.6c-0.1-0.2-0.2-0.5-0.4-0.8c-0.1-0.2-0.2-0.5-0.4-0.7c0,0,0-0.1-0.1-0.1l0,0
				c-3.5-7.3-9.5-19.2-26.2-24.8c-1.2-0.4-2.2,1.7-1.4,2.9c3.5,5,8.8,13.8,9.6,22.2c0,0.2,0,0.5,0.1,0.7c0,0,0,0.1,0,0.1
				c0,0.2,0,0.4,0,0.6c0,0.1,0,0.2,0,0.3c0,0.1,0,0.3,0,0.4c0,0.3,0,0.5,0,0.8c0,0.7-0.3,1.4-0.3,2c-9.5,0.6-16.2,1.9-16.2,3.5
				c0,1.5,5.7,2.8,14,3.4c-2.9,4.6-7.2,8.2-12.1,10.5c-1.6,0.8-3.3,1.6-4.9,2.2c-3.7,1.5-7.6,2.4-11.5,2.3
				c-11.9-0.2-23.1-9.1-34.8-6.7c-5.3,1.1-10,4.7-12.3,9.6c-2.3,4.9-2,10.9,0.9,15.4c1.6,2.5,3.9,4.4,6.4,6.1
				c3.1,2.1,6.6,3.8,10.2,4.8c7.6,2.1,15.8,1,23.1-2c7.3-3,13.7-7.8,19.5-13.1c2.7-2.5,5.4-5.2,9-5.9c1.9-0.4,3.8-0.2,5.7-0.2
				l-4.6,5.8l0,0l-3.8,4.8h0l-0.2,0.3c-5.9,0.6-22.8,3.8-28.9,19.3c-1.3,3.4-2.6,6.2-3.8,8.5l-16.3-0.4c-0.1-0.1-0.3-0.1-0.5-0.2
				l-13-3v0.3c-10-4.7-38.4-15.9-50.3,1.8c-1.3,1.9-2.5,4.2-3.4,6.7c3.4-3.1,8-6.1,13.8-7.6c0,0-11.2,6.6-15.7,14.7
				c-0.7,4.8-0.2,9.7,2.4,13.4c0.4,0.6,0.9,1.1,1.4,1.6c1.1-3.7,5.1-14.6,15.7-20.8c0,0-12.9,13.4-11.5,23.6c0,0,7.9-1.5,15.7-1.2
				c3,0.1,5.9,0.4,8.3,1.2c0,0,0.1-8.9,9.6-15.8c3.1-1.8,6.4-3.3,9.7-4.7c0.5-0.2,1.1-0.4,1.9-0.7c0.8-0.2,1.6-0.4,2.4-0.6l-0.5-0.1
				c0.2-0.1,0.3-0.1,0.5-0.2v0.3l12.7-2.2c0.8-0.1,1.4-0.5,1.9-1l12.1-0.2c-0.8,1.1-1.5,1.9-2.2,2.6c-1.1,1.1-1,2.7-0.1,3.7l0,0
				c0,0,9.1,15.4,34.4,2.3c0.2-0.1,0.3-0.2,0.5-0.2c2.3,2.5,5.1,4.6,8.4,6.2l19.3,9.3l-14.2-4.1c-5.9-1.7-12.1-2.7-18.3-2.8l-35.7-1
				v0l-1.5-0.1c0,0,0,0,0,0c-0.3-0.2-0.7-0.3-1-0.3c-1.8,0-8.8,0.4-11,5.3c-0.9,2,1.3,3.9,3.1,2.7c0.5-0.3,1-0.7,1.5-1.2
				c3.2-2.9,5.2-3.6,6-3.8c0.3-0.1,0.6-0.2,0.8-0.4l2.1,0.4l0,0l0,0l98.8,20.2c0.7,0.1,1.4,0,2-0.3h0c1.8-1,2.2-3.5,0.8-5l-27.5-28
				l0,0l-2.2-2.2c3.1-0.9,10.9,3.8,10.9,3.8l-5.6-8.4l26.3-0.4l2,2.7l7.8-0.3l-2.3-2.5l18.1-0.3c7.7-0.1,15.3,0.5,22.8,2l7.2,1.4
				C1131.1,422.5,1124.2,419.9,1117.2,419.7z M1046.7,418.3c-4.6-7.2-10.7-13.4-17.8-18.1l-3.5-2.3c0.2-0.3,0.4-0.5,0.6-0.8l0,0
				c0.5-0.6,1-1.2,1.6-1.7c0,0,0,0,0.1-0.1c0.3-0.2,0.6-0.5,0.8-0.7c0,0,0.1-0.1,0.1-0.1c0.3-0.2,0.6-0.5,0.9-0.7l1.4-0.9l0,0
				l1.9-1.3l4.3-1.4l4,4.6v0c2.2,11.9,11.4,21.3,23.3,23.8l5.8,1.2l-22.2,0.2L1046.7,418.3z"/>
			<polygon id="XMLID_1_" class="st3" points="309,360.5 309,360.5 309,360.5 			"/>
		</g>
		<polygon class="st1" points="512.9,277.3 227.3,526.7 970.5,752.5 		"/>
		<path class="st2" d="M842.2,566.5L512.9,277.3l4.2,202.7l-81.3,62.8l4.8,45.7c42.4,29.4,80.1,65.7,112.8,105.8
			c24.4,30,46.4,62.3,73,90.2l216.2,37.1L842.2,566.5z"/>
		<path id="XMLID_400_" class="st4" d="M1059.1,661.2l-2.4-7.7l-8.6-39.4l-8.6,39.4l-2,6.4l-2-6.4l-8.6-39.4l-8.6,39.4l-2.4,7.7
			l-2.4-7.7l-8.6-39.4l-8.6,39.4l-2.1,6.7l-2.1-6.7l-8.6-39.4l-8.6,39.4l-2.4,7.7l-2.4-7.7l-8.6-39.4l-8.6,39.4l-2.4,7.7l-2.4-7.7
			l-8.6-39.4l-8.6,39.4l-2.4,7.7l-2.4-7.7l-8.6-39.4l-8.6,39.4l-2.1,6.7l-2.1-6.7l-8.6-39.4l-8.6,39.4l-2.4,7.7l-2.4-7.7l-8.6-39.4
			l-8.6,39.4l-2,6.4l-2-6.4l-8.6-39.4l-8.6,39.4l-2.4,7.7l-2.4-7.7l-8.6-39.4l-8.6,39.4l-2.1,6.7l-2.1-6.7l-8.6-39.4l-8.6,39.4
			l-2.4,7.7l-2.4-7.7l-8.6-39.4l-8.6,39.4l-2.9,9.3l-0.4,1.4l-0.4-1.4l-2.9-9.3l-8.6-39.4l-8.6,39.4l-2.4,7.7l-2.4-7.7l-8.6-39.4
			l-8.6,39.4l-2.1,6.7l-2.1-6.7l-8.6-39.4l-8.6,39.4l-2.4,7.7l-2.4-7.7l-8.6-39.4l-8.6,39.4l-2,6.4l-2-6.4l-8.6-39.4l-8.6,39.4
			l-2.4,7.7l-2.4-7.7l-8.6-39.4l-8.6,39.4l-2.1,6.7l-2.1-6.7l-8.6-39.4l-8.6,39.4l-2.4,7.7l-2.4-7.7l-8.6-39.4l-8.6,39.4l-2.4,7.7
			l-2.4-7.7l-8.6-39.4l-8.6,39.4l-2.4,7.7l-2.4-7.7l-8.6-39.4l-8.6,39.4l-2.1,6.7l-2.1-6.7l-8.6-39.4l-8.6,39.4l-2.4,7.7l-2.4-7.7
			l-8.6-39.4l-8.6,39.4l-0.8,2.6c13,13.3,25.5,27.2,37.2,41.6c28.8,35.3,54.1,73.9,87.8,104.7c52,47.5,120.3,73.2,188.5,90.6
			c58.4,14.9,123,23.8,176.9-3.3c75-37.7,102.9-138.2,77-218c-4.4-13.5-10-38.6-15.3-52l-6.8,33.8L1059.1,661.2z"/>
		<path class="st2" d="M1068.3,729.8l-6.8,33.8l-2.4,7.7l-2.4-7.7l-8.6-39.4l-8.6,39.4l-2,6.4l-2-6.4l-8.6-39.4l-8.6,39.4l-2.4,7.7
			l-2.4-7.7l-8.6-39.4l-8.6,39.4l-2.1,6.7l-2.1-6.7l-8.6-39.4l-8.6,39.4l-2.4,7.7l-2.4-7.7l-8.6-39.4l-8.6,39.4l-2.4,7.7l-2.4-7.7
			l-8.6-39.4l-8.6,39.4l-2.4,7.7l-2.4-7.7l-8.6-39.4l-8.6,39.4l-2.1,6.7l-2.1-6.7l-8.6-39.4l-8.6,39.4l-2.4,7.7l-2.4-7.7l-8.6-39.4
			l-8.6,39.4l-2,6.4l-2-6.4l-8.6-39.4l-8.6,39.4l-2.4,7.7l-2.4-7.7l-8.6-39.4l-8.6,39.4l-2.1,6.7l-2.1-6.7l-8.6-39.4l-8.6,39.4
			l-2.4,7.7l-2.4-7.7l-8.6-39.4l-8.6,39.4l-2.9,9.3l-0.4,1.4l-0.4-1.4l-2.9-9.3l-8.6-39.4l-8.6,39.4l-2.4,7.7l-2.4-7.7l-8.6-39.4
			l-8.6,39.4l-2.1,6.7l-2.1-6.7l-8.6-39.4l-8.6,39.4l-2.4,7.7l-2.4-7.7l-8.6-39.4l-8.6,39.4l-2,6.4l-2-6.4l-8.6-39.4l-8.6,39.4
			l-2.4,7.7l-2.4-7.7l-8.6-39.4l-8.6,39.4l-2.1,6.7l-2.1-6.7l-8.6-39.4l-8.6,39.4l-2.4,7.7l-2.4-7.7l-8.6-39.4l-8.4,38.7
			c11.5,14,23.5,27.4,36.8,39.6c52,47.5,120.3,73.2,188.5,90.6c58.4,14.9,123,23.8,176.9-3.3c40.1-20.2,66.8-58.4,78.9-101.7
			c-0.6-2.1-1.2-4.2-1.9-6.3C1079.2,768.2,1073.5,743.1,1068.3,729.8z"/>
		<path id="XMLID_304_" class="st5" d="M320.5,210.3c0,3.2-2.6,5.8-5.8,5.8c-3.2,0-5.8-2.6-5.8-5.8s2.6-5.8,5.8-5.8
			C317.9,204.5,320.5,207.1,320.5,210.3"/>
		<path id="XMLID_391_" class="st5" d="M326.9,274.5c0,2.7-2.2,4.9-4.9,4.9c-2.7,0-4.9-2.2-4.9-4.9c0-2.7,2.2-4.9,4.9-4.9
			C324.7,269.6,326.9,271.8,326.9,274.5"/>
		<polygon id="XMLID_329_" class="st5" points="371,242.2 366.7,244.3 366,249.2 362.5,245.7 357.7,246.5 360,242.2 357.7,237.8 
			362.5,238.7 366,235.2 366.7,240 		"/>
		<polygon id="XMLID_392_" class="st5" points="471.8,238.7 467.4,240.8 466.7,245.7 463.3,242.2 458.5,243 460.7,238.7 
			458.5,234.4 463.3,235.2 466.7,231.7 467.4,236.5 		"/>
		<polygon id="XMLID_381_" class="st5" points="1228.5,347.3 1224.1,349.5 1223.4,354.3 1220,350.8 1215.2,351.6 1217.5,347.3 
			1215.2,343 1220,343.8 1223.4,340.3 1224.1,345.1 		"/>
		<polygon id="XMLID_383_" class="st5" points="1235.1,244.3 1230.8,246.5 1230.1,251.3 1226.7,247.8 1221.8,248.6 1224.1,244.3 
			1221.8,240 1226.7,240.8 1230.1,237.3 1230.8,242.2 		"/>
		<polygon id="XMLID_389_" class="st5" points="841.6,280.5 837.3,282.7 836.5,287.5 833.1,284 828.3,284.9 830.6,280.5 
			828.3,276.2 833.1,277 836.5,273.5 837.3,278.4 		"/>
		<polygon id="XMLID_312_" class="st5" points="249.8,399.2 246.1,401 245.5,405.1 242.6,402.2 238.5,402.9 240.4,399.2 
			238.5,395.5 242.6,396.2 245.5,393.2 246.1,397.4 		"/>
	</g>
</g>
<g id="Object">
	<g>
		<g id="XMLID_2_">
			<g id="XMLID_145_">
				<path id="XMLID_136_" class="st6" d="M904.2,559.5c0,0-68.1,121.7-262.9,34.1S808.2,490.1,904.2,559.5z"/>
			</g>
			<g id="XMLID_54_">
				<path id="XMLID_57_" class="st7" d="M782.9,206.9L572.1,340.7l-222.2,14.5c-27,27.3-30.5,73.2-12,106.8
					c18.5,33.7,55.9,54.7,94.2,58.3c44.9,4.2,91.4-14.7,120.6-49.1c5.1-6,9.9-12.7,16.8-16.7c8.5-5,18.9-5.2,28.8-5.7
					c35.1-1.8,70.4-10.1,100.4-28.3c18-10.9,33.8-25.2,48.6-40.2C795.6,331.3,829,254.3,782.9,206.9z"/>
			</g>
			<path id="XMLID_386_" class="st0" d="M684.7,344.5c8.5,2.6,17.6,3,26.4,2.7c11-0.5,22.1-2.2,32.2-6.6
				c25.4-11.2,40.8-38.8,43.5-66.4c2.1-21.6-2.4-43.1-9.7-63.7L646,293.8c0.2,5.1,1,10.2,2.6,15.1
				C653.9,325.7,667.9,339.4,684.7,344.5z"/>
			<path id="XMLID_24_" class="st8" d="M1070.5,659.2c-10-14.8-23.7-26.9-39.6-35L647.1,428.3v132.5l375.4,104
				c5.4,26.2,19.1,50,38.9,68l132.6,108.8v-17.2L1070.5,659.2z"/>
			<path id="XMLID_288_" class="st9" d="M1183.6,833.2c6.4,6.3,31.8,28.8,56.3,19.8c9.9-3.6,9-18-1.3-20.2c-2.6-0.5-5.7-1-9.3-1.2
				c-21.2-1.2-30.4-5.6-33.7-7.7c-1.4-0.9-2.9-1.5-4.6-1.6c-4.4-0.5-12-0.4-10.1,6.4C1181.3,830.4,1182.3,832,1183.6,833.2z"/>
			<path id="XMLID_22_" class="st6" d="M662.3,419.8c0,0,6.8-6.5,241.9,139.7c0,0-42.1-30.3-48.8,8.1c-6.7,38.4-33.7,22.9-33.7,22.9
				L638.4,436.2L662.3,419.8z"/>
			<path id="XMLID_132_" class="st10" d="M1194.1,562.1c-7.8-21.8-41.3-34.6-75.3-35.4h-33.6H1003L477.3,531l-176.6-4.3V558
				l747.1-12.7c37.4-0.6,74.8,2.7,111.4,9.9L1194.1,562.1L1194.1,562.1z"/>
			<g id="XMLID_135_">
				<path id="XMLID_134_" class="st6" d="M445.2,586.2c0,0,44.4,75,167.7,11s139.8-41.5,139.8-41.5L517.1,480L445.2,586.2z"/>
			</g>
			<path id="XMLID_21_" class="st11" d="M615.2,415.9l-2.3,2.7c-57.6,66.6-36.2,169.7,43.2,207.8l94.3,45.3l-69-20.1
				c-29-8.4-58.9-13.1-89.1-13.7l-184-4.9l-1.7,11.5l493.7,100.8c3.4,0.6,6.9,0.1,9.9-1.6l0,0c9-4.8,10.9-16.9,3.7-24.2L615.2,415.9
				z"/>
			<path id="XMLID_382_" class="st0" d="M779.3,582.8L615.2,415.9l-2.3,2.7c-47.3,54.7-41.3,134,6.3,181.7
				C653.8,618.9,711.7,633.2,779.3,582.8z"/>
			<path id="XMLID_64_" class="st12" d="M786.5,225c-1.6-5.1-14.1,7.1-19.6,5.4c-8.8-2.6-23.9-10.1-26.5-1.3
				c-0.1,0.4-0.2,0.8-0.3,1.3L699.3,267l49.1,38.1l3.3-38.3l3,1.5c9.3,2.7,19-2.6,21.7-11.9l4.7-16.1L786.5,225z"/>
			<path id="XMLID_20_" class="st13" d="M1014.2,289.8c21-33.3-18.6,3.3-18.6,3.3l-37.8-1.5c-19.5-0.8-45.7,5.5-65.5,14
				c-0.1,0-0.2,0.1-0.3,0.1c-23.1,9.9-44.8,23-64.3,38.9l-0.8,0.7l-70.1-31.7c-9.2-3.2-19.2,2.4-21.4,11.9l0,0
				c-5.5,23.5,13.5,45.6,37.6,43.7l50.9-4l0,0c46.9,22.3,102.6,14.3,141.3-20.4l33.9-30.4l49.6,0.6l14.5-30.3L1014.2,289.8z"/>
			<path id="XMLID_161_" class="st9" d="M687.8,431.5l-17-11.3c5.5-7.7,12.3-14.5,20.3-19.9l15.9-10.8l23.4-7.6
				c14.5-4.7,27.3-13.6,36.8-25.6c1.6-31-14.3-60.2-41.2-75.8v0l-40,44.9l-54.9,69.8c-28.7,3.1-111.4,18.5-141.1,94.2
				c-17.3,44.2-32.9,67-44.4,78.7c-7.6,7.8-3.2,20.9,7.5,22.5c18.5,2.7,33,4.9,64.2-19.9c52.2-41.5,89.5-7.2,117.9,16.1
				c28.4,23.3,107.8,10.1,129.4-12.6c10.8-11.4,56.9,16.3,56.9,16.3l-47.1-70.6C752.1,484.7,722.5,454.6,687.8,431.5z"/>
			<path id="XMLID_393_" class="st0" d="M692.5,369.2c2,2.2,4.7,3.7,7.3,5.1c5.2,2.9,10.4,5.8,15.6,8.6c1.5,0.8,3,1.6,4.5,2.4
				l10.5-3.4c2.1-0.7,4.1-1.5,6.1-2.3c-9.7-24.3-20.5-49.2-38.3-67.8l-12.1,13.6l-6,7.6c0,10.2,3.8,20.4,8.4,29.7
				C689.6,365,690.8,367.3,692.5,369.2z"/>
			<path id="XMLID_311_" class="st10" d="M691,400.3l6.7-4.5c-16.9-3.1-35.1-15.9-46.8-25.6l-18.5,23.5
				c12.5,10.1,30.6,18.3,41.3,22.6C678.6,410.2,684.4,404.8,691,400.3z"/>
			<path id="XMLID_131_" class="st12" d="M943.9,529.9c44.7-3-15.5-14.9-15.5-14.9l-23.9-35.8c-12.3-18.4-35.6-38.4-56.8-50.9
				c-0.1-0.1-0.2-0.1-0.4-0.2c-24.6-14.6-51.2-25.8-78.9-33l-1.2-0.3L749.5,309c-3.3-10.6-15-16.1-25.2-11.7l0,0
				c-25.3,10.7-32.9,43-15,63.9l37.9,44.1v0c10.9,58.1,55.7,104,113.5,116.3l50.6,10.8l21.3,28.3l38-1.6L943.9,529.9z"/>
			<path id="XMLID_17_" class="st10" d="M745.5,258.8c-4,18-9,36.2-19.2,51.6c-10.2,15.4-26,27.9-44.2,30.6
				c-12.2,1.8-24.8-0.6-36.8,1.9c-17.4,3.6-30.8,16.9-43.8,29c-28.2,26.1-59.5,49.5-95,64.1c-35.5,14.6-75.7,19.8-112.8,9.7
				c-17.8-4.9-34.6-13.1-49.8-23.5c-12-8.1-23.2-17.6-31.1-29.7c-14.4-22-15.7-51.6-4.5-75.3c11.2-23.8,34.4-41.2,60.1-46.7
				c57-12.1,111.6,31.4,169.9,32.5c19.2,0.4,38.4-4,56.2-11.2c8.2-3.3,16.1-7.2,24.1-10.9c26.4-12.4,48.6-32.3,63-57.7
				c2.9-5.1,5.3-9.9,6.7-13.9c7-19.9,64.6,9.4,64.6,9.4S747.7,248.9,745.5,258.8z"/>
			<path id="XMLID_15_" class="st14" d="M699.5,209.4"/>
			<ellipse id="XMLID_23_" class="st9" cx="735" cy="213.2" rx="125.7" ry="18.6"/>
			<path id="XMLID_16_" class="st9" d="M780.7,178.8c-16.4-34.4-43.6-99.4-131.3-129.1c-5.8-2-10.7,8.4-6.7,14.1
				c19.3,27.4,49.3,77.7,47.2,122.5c-0.4,8.3-7,16.4,8.3,18c11.5,1.3,30.6,10.4,67.9,5.4C777.1,208.4,796.8,212.5,780.7,178.8z"/>
			<path id="XMLID_133_" class="st10" d="M777,171c-27.9,9.9-65.9,5.2-87.5,1.1c0.4,4.8,0.6,9.6,0.4,14.3c-0.4,8.3-7,19.4,8.3,21.1
				c11.5,1.3,30.6,7.3,67.9,2.4c11-1.5,30.7,2.7,14.7-31C779.6,176.4,778.3,173.8,777,171z"/>
			<polygon id="XMLID_9_" class="st10" points="1182,831.6 1194,822.8 1184.5,811.4 1170.8,822.4 			"/>
			<g id="XMLID_137_">
				<path id="XMLID_159_" class="st15" d="M1121.6,170.5c-0.8,0.2-1.9,0.6-3.1,1.1c0.2,0.2,0.4,0.4,0.5,0.7
					C1119.8,171.6,1120.7,171.1,1121.6,170.5z"/>
				<path id="XMLID_249_" class="st9" d="M1059.4,257.2c-4.9-2.7-32.5-17.1-52.9-11.6l5.8,7.9c0,0,20.4-0.6,41.1,8.9
					C1055.4,260.9,1057.4,259.1,1059.4,257.2z"/>
				<path id="XMLID_282_" class="st9" d="M1203.1,167.2l-1.4,2.9l-53,107.1c-15.2-22.7-56.2-22.6-76.6-21c-2.4,3.3-5.1,6.2-7.8,8.7
					l3.7,0.7c0,0,38.1-12.3,84,23.5l52.9-103.3L1203.1,167.2z"/>
				<path id="XMLID_335_" class="st11" d="M1121.6,170.5c-0.9,0.6-1.7,1.1-2.6,1.7l0,0l-34.3,49.8c-0.5,2.3-1,4.6-1.4,7.1
					c-2,11.2-6.1,20.1-11.2,27.2c20.4-1.6,61.4-1.7,76.6,21l53-107.1l1.4-2.9c0,0-49.2-16.1-80.6,2.7c0.7,0.1,1,0.2,1,0.2
					S1122.8,170.2,1121.6,170.5z"/>
				<path id="XMLID_337_" class="st11" d="M1069.4,244.2l-5.6,8.1C1065.8,249.8,1067.7,247.2,1069.4,244.2z"/>
				<path id="XMLID_341_" class="st12" d="M1059.4,257.2c1.5-1.5,3-3.1,4.5-4.9l5.6-8.1c4-6.8,7.4-15.1,9.7-25.3
					c9.1-39.9,28-47.7,38-48.8c-22.6-26.3-55.3-4.1-55.3-4.1l-55.3,79.7C1026.9,240,1054.5,254.5,1059.4,257.2z"/>
				<path id="XMLID_346_" class="st12" d="M1119,172.2L1119,172.2c-0.2-0.2-0.4-0.4-0.5-0.7c-8.6,3.5-25.7,14.8-33.8,50.5
					L1119,172.2z"/>
				<path id="XMLID_347_" class="st10" d="M1072,256.3c5.1-7.1,9.3-15.9,11.2-27.2c0.4-2.5,0.9-4.8,1.4-7.1
					c8.1-35.7,25.2-47,33.8-50.5c1.2-0.5,2.3-0.8,3.1-1.1c1.3-0.3,2-0.4,2-0.4s-0.4-0.1-1-0.2c-1.1-0.1-3-0.2-5.4,0.1
					c-9.9,1.2-28.9,8.9-38,48.8c-2.3,10.3-5.7,18.6-9.7,25.3c-1.8,3-3.6,5.7-5.6,8.1c-1.5,1.8-2.9,3.4-4.5,4.9c-2,2-4,3.7-6,5.2
					c-15,11.2-30.3,10.7-30.3,10.7l11.2,2.7l-7.4,6.9c0,0,20.7-2.4,37.2-17.7C1067,262.5,1069.6,259.6,1072,256.3z"/>
			</g>
			<path id="XMLID_3_" class="st9" d="M405.6,631.5c-9,0.1-42.8,2.1-53.8,25.8c-4.4,9.6,6.4,19.1,15.2,13.3c2.2-1.4,4.7-3.3,7.4-5.8
				c15.8-14.1,25.4-17.6,29.3-18.4c1.6-0.4,3.1-1,4.4-2.1c3.5-2.8,8.7-8.2,2.7-11.7C409.1,631.9,407.3,631.5,405.6,631.5z"/>
			<polygon id="XMLID_18_" class="st10" points="406.6,644.2 417.9,646.8 417.9,633.2 407,632.7 			"/>
			<path id="XMLID_71_" class="st9" d="M425.5,580.7"/>
			<polygon id="XMLID_138_" class="st10" points="1066.7,130.8 1069.3,136.2 1075.3,137.1 1071,141.3 1072,147.2 1066.7,144.4 
				1061.3,147.2 1062.4,141.3 1058.1,137.1 1064,136.2 			"/>
			<polygon id="XMLID_142_" class="st10" points="1138.7,201.7 1139.5,207.7 1144.8,210.4 1139.4,213 1138.4,218.9 1134.3,214.5 
				1128.3,215.4 1131.2,210.1 1128.5,204.8 1134.4,205.9 			"/>
			<polygon id="XMLID_156_" class="st10" points="1030.9,178.6 1031.4,183.1 1035.4,185.1 1031.3,187 1030.6,191.4 1027.6,188.1 
				1023.2,188.8 1025.3,184.9 1023.3,180.9 1027.7,181.8 			"/>
			<polygon id="XMLID_300_" class="st10" points="1169.2,130.4 1169.9,136.4 1175.3,139.2 1169.8,141.7 1168.9,147.6 1164.8,143.2 
				1158.8,144.1 1161.7,138.9 1159,133.5 1164.9,134.6 			"/>
			<polygon id="XMLID_362_" class="st10" points="1101.3,106.3 1102,112.2 1107.3,115 1101.9,117.6 1100.9,123.5 1096.8,119.1 
				1090.9,120 1093.8,114.7 1091.1,109.4 1097,110.5 			"/>
			<circle id="XMLID_139_" class="st10" cx="1029.3" cy="143.6" r="3.6"/>
			<circle id="XMLID_314_" class="st10" cx="1124.7" cy="147.2" r="3.6"/>
			<circle id="XMLID_298_" class="st10" cx="1217" cy="167.2" r="4.8"/>
			<g id="XMLID_140_">
				<path id="XMLID_146_" class="st11" d="M388.2,561.2l-61.9,10.7v-58.2l63.4,14.5c7.5,1.8,12.8,8.6,12.8,16.3l0,0
					C402.5,552.8,396.4,559.9,388.2,561.2z"/>
			</g>
		</g>
		<g id="XMLID_160_">
			<path id="XMLID_255_" class="st9" d="M305.5,578.4c2.4-1,5.6-2.2,9.2-3.5c-23.9,6.9-42.3,16.1-56.5,26.3
				C273.4,592.5,289.4,585.2,305.5,578.4z"/>
			<path id="XMLID_261_" class="st9" d="M351.9,532.7c-3.9-5.4-9.2-9.6-15.1-12.6c-34.6-17.4-192.9-90-256.1,3.5
				c-6.3,9.3-12.1,20.6-16.8,32.8c16.6-14.9,39-29.6,67.3-37c0,0-54.5,32-76.5,71.7c-3.5,23.6-0.9,47.3,11.8,65.2
				c2.1,2.9,4.4,5.6,6.9,8c5.3-18.3,24.7-71.2,76.7-101.6c0,0-62.7,65.1-56.1,115.3c0,0,38.7-7.2,76.6-6c14.4,0.5,28.7,2.2,40.7,6
				c0,0,0.5-43.4,47-76.8c14.1-10.2,32.5-19.4,56.5-26.3c3.7-1.1,7.6-2.1,11.6-3l-2.2-0.6C343.4,563.5,365.6,551.4,351.9,532.7z"/>
		</g>
	</g>
</g>
</svg>
